<svg xmlns="http://www.w3.org/2000/svg" viewBox="0 0 230.56 160.5"><defs><style>.a{fill:#4d4d4f;}.b{fill:#0f69b4;}.c{fill:#eb3c46;}</style></defs><path class="a" d="M16.24,88.2h-4.5l6.44-23.76h7.67L32.08,88.2H26.91l-1.24-5.35H17.51ZM21,68.49,18.35,79.12h6.48L22.4,68.49Z"/><path class="a" d="M49.57,71l-.07,3.42a12.93,12.93,0,0,1-3.24-.6A4.61,4.61,0,0,1,48,76.48c0,4.22-4.19,5.91-7.11,5.91a10,10,0,0,1-2.22-.32c-.53.18-.84.5-.84,1,0,1.87,10.94-.31,10.94,6.16,0,4-3.87,6.27-8.2,6.27-3.62,0-7.28-1.58-7.28-4.75,0-2.22,1.76-3.38,4.57-3.8-2.14-.25-4.29-.92-4.29-2.93,0-1.44,1.34-2.49,3.27-2.63a5.31,5.31,0,0,1-3.1-4.86c0-4.58,4.33-5.88,7.11-5.88,1.87,0,5.74.32,8.73.35M40.18,87.21c-1.62.14-2.64,1.06-2.64,2.54s1.37,2.6,3.23,2.6c2.08,0,3.45-1,3.45-2.85,0-1.51-1.34-2.08-4-2.29m3.73-10.77c0-2-1.73-2.56-3.07-2.56s-3.09.52-3.09,2.56c0,2.19,1.65,2.71,3.09,2.71s3.07-.52,3.07-2.71"/><path class="a" d="M55.84,80.81c0,2.74,1.55,4.26,4.43,4.26a11.48,11.48,0,0,0,5.07-1.45l.88,3.24a14.06,14.06,0,0,1-6.51,1.69c-5.32,0-8.48-3.31-8.48-9,0-5.31,2.57-8.94,8.09-8.94,5.21,0,7.25,3.87,7.25,8.2v2ZM59.08,74c-2.29,0-3.24,2.08-3.24,4.12h6.3c0-2.22-.67-4.12-3.06-4.12"/><path class="a" d="M80.09,88.2V78c0-2.61-1-3.84-3.1-3.84a5.57,5.57,0,0,0-3,1.06v13H69.35V71h3.17l.71,2a7.13,7.13,0,0,1,5.45-2.32c4.37,0,6.09,2.57,6.09,6.93V88.2Z"/><path class="a" d="M101.59,87a13.32,13.32,0,0,1-5.91,1.51c-5.14,0-8.24-2.92-8.24-9,0-5.63,3.1-9,8.2-9A11.71,11.71,0,0,1,101.56,72l-1.2,3.13a8.55,8.55,0,0,0-4.33-1c-2.39,0-3.91,1.62-3.91,5.49s1.45,5.49,3.95,5.49a10.13,10.13,0,0,0,4.68-1.3Z"/><path class="a" d="M105.39,88.2V74.26l-2-.42V71H110V88.2Zm-.14-24.29h4.65V68.1h-4.65Z"/><path class="a" d="M124.12,88.2l-.64-2a6.18,6.18,0,0,1-5,2.39c-3.45,0-5.77-2.22-5.77-5.53s2.36-5.1,6.51-5.1h3.63V77c0-2.22-1.27-2.92-3-2.92a12.57,12.57,0,0,0-5.18,1.16L113.46,72a17.36,17.36,0,0,1,6.79-1.41c4.89,0,7,2.25,7,6.65v11Zm-1.3-7.53H120c-1.89,0-2.78.91-2.78,2.21a2.3,2.3,0,0,0,2.57,2.54,5.15,5.15,0,0,0,3.07-1.16Z"/><path class="a" d="M148.82,72.29a10.68,10.68,0,0,1-.42-3.17V63.91H153V88.2h-3.73l-.53-1.9a5.62,5.62,0,0,1-4.58,2.25c-3.9,0-7-2.81-7-9,0-5.7,3.24-9,7.43-9a5.57,5.57,0,0,1,4.29,1.69m-.42,2.61a6,6,0,0,0-3.13-.85c-2.18,0-3.56,1.48-3.56,5.49s1.31,5.67,3.49,5.67a4.57,4.57,0,0,0,3.2-1.48Z"/><path class="a" d="M160.4,80.81c0,2.74,1.55,4.26,4.44,4.26a11.48,11.48,0,0,0,5.07-1.45l.88,3.24a14.06,14.06,0,0,1-6.51,1.69c-5.32,0-8.49-3.31-8.49-9,0-5.31,2.57-8.94,8.1-8.94,5.21,0,7.25,3.87,7.25,8.2v2ZM163.64,74c-2.29,0-3.24,2.08-3.24,4.12h6.31c0-2.22-.67-4.12-3.07-4.12"/><path class="a" d="M23.1,124.52c-6.68,0-10.27-4.43-10.27-12.35,0-7.39,3.55-12.11,10.27-12.11a14.93,14.93,0,0,1,8.1,2l-1.76,3.73a9.94,9.94,0,0,0-5.84-1.66c-3.94,0-5.91,2.78-5.91,8,0,5.5,2,8.31,5.84,8.31a11,11,0,0,0,6.26-2.18L31.27,122a14,14,0,0,1-8.17,2.53"/><path class="a" d="M44.33,124.17l-.63-2a6.18,6.18,0,0,1-5,2.39c-3.45,0-5.77-2.21-5.77-5.52s2.36-5.11,6.51-5.11H43V113c0-2.21-1.27-2.92-3-2.92a12.48,12.48,0,0,0-5.17,1.16L33.67,108a17.36,17.36,0,0,1,6.79-1.41c4.89,0,7,2.26,7,6.66v10.94ZM43,116.64H40.18c-1.9,0-2.78.91-2.78,2.22A2.29,2.29,0,0,0,40,121.39,5.15,5.15,0,0,0,43,120.23Z"/><path class="a" d="M50.8,119.6V99.89h4.55v19.46c0,1.44.87,1.65,2.78,1.65v3.24a14.56,14.56,0,0,1-2.54.28c-3.52,0-4.79-1.86-4.79-4.92"/><path class="a" d="M61.82,124.17V110.23l-2-.42v-2.89H66.4v17.25Zm-.14-24.28h4.65v4.18H61.68Z"/><path class="a" d="M81,108.26a10.61,10.61,0,0,1-.42-3.16V99.89h4.57v24.28H81.46l-.53-1.9a5.57,5.57,0,0,1-4.57,2.25c-3.91,0-7-2.81-7-9,0-5.7,3.24-9,7.42-9a5.63,5.63,0,0,1,4.3,1.69m-.42,2.61a6.12,6.12,0,0,0-3.14-.85c-2.18,0-3.55,1.48-3.55,5.49s1.3,5.67,3.48,5.67a4.55,4.55,0,0,0,3.21-1.48Z"/><path class="a" d="M99.27,124.17l-.63-2a6.18,6.18,0,0,1-5,2.39c-3.45,0-5.77-2.21-5.77-5.52s2.36-5.11,6.51-5.11H98V113c0-2.21-1.27-2.92-3-2.92a12.48,12.48,0,0,0-5.17,1.16L88.61,108a17.36,17.36,0,0,1,6.79-1.41c4.89,0,7,2.26,7,6.66v10.94ZM98,116.64H95.12c-1.9,0-2.78.91-2.78,2.22a2.29,2.29,0,0,0,2.57,2.53A5.15,5.15,0,0,0,98,120.23Z"/><path class="a" d="M116.87,108.26a10.61,10.61,0,0,1-.42-3.16V99.89H121v24.28h-3.73l-.53-1.9a5.57,5.57,0,0,1-4.57,2.25c-3.91,0-7-2.81-7-9,0-5.7,3.23-9,7.42-9a5.63,5.63,0,0,1,4.3,1.69m-.42,2.61a6.12,6.12,0,0,0-3.14-.85c-2.18,0-3.55,1.48-3.55,5.49s1.3,5.67,3.48,5.67a4.57,4.57,0,0,0,3.21-1.48Z"/><path class="a" d="M142.66,108.26a10.61,10.61,0,0,1-.42-3.16V99.89h4.58v24.28h-3.73l-.53-1.9a5.57,5.57,0,0,1-4.58,2.25c-3.9,0-7-2.81-7-9,0-5.7,3.24-9,7.43-9a5.61,5.61,0,0,1,4.29,1.69m-.42,2.61a6,6,0,0,0-3.13-.85c-2.18,0-3.55,1.48-3.55,5.49s1.3,5.67,3.48,5.67a4.53,4.53,0,0,0,3.2-1.48Z"/><path class="a" d="M154.21,116.78c0,2.75,1.55,4.26,4.43,4.26a11.6,11.6,0,0,0,5.07-1.44l.88,3.23a14.06,14.06,0,0,1-6.51,1.69c-5.31,0-8.48-3.31-8.48-9,0-5.31,2.57-8.94,8.09-8.94,5.21,0,7.25,3.87,7.25,8.2v2Zm3.24-6.83c-2.29,0-3.24,2.08-3.24,4.12h6.3c0-2.22-.67-4.12-3.06-4.12"/><path class="a" d="M174.8,119.6V99.89h4.54v19.46c0,1.44.88,1.65,2.78,1.65v3.24a14.56,14.56,0,0,1-2.54.28c-3.51,0-4.78-1.86-4.78-4.92"/><path class="a" d="M195,124.17l-.64-2a6.16,6.16,0,0,1-5,2.39c-3.45,0-5.77-2.21-5.77-5.52s2.36-5.11,6.51-5.11h3.62V113c0-2.21-1.26-2.92-3-2.92a12.57,12.57,0,0,0-5.18,1.16L184.37,108a17.45,17.45,0,0,1,6.8-1.41c4.89,0,7,2.26,7,6.66v10.94Zm-1.31-7.53h-2.85c-1.9,0-2.78.91-2.78,2.22a2.3,2.3,0,0,0,2.57,2.53,5.13,5.13,0,0,0,3.06-1.16Z"/><polygon class="a" points="13.6 160.14 13.6 136.39 28.21 136.39 28.21 140.29 18.21 140.29 18.21 146.13 25.85 146.13 25.5 150.22 18.21 150.22 18.21 156.31 28.21 156.31 28.21 160.14 13.6 160.14"/><path class="a" d="M42.22,144.24a10.39,10.39,0,0,1-.43-3.17v-5.21h4.58v24.28H42.64l-.53-1.9a5.57,5.57,0,0,1-4.57,2.26c-3.91,0-7-2.82-7-9,0-5.7,3.23-9,7.42-9a5.6,5.6,0,0,1,4.3,1.7m-.43,2.6a6.15,6.15,0,0,0-3.13-.85c-2.18,0-3.55,1.48-3.55,5.5s1.3,5.66,3.48,5.66a4.51,4.51,0,0,0,3.2-1.48Z"/><path class="a" d="M61.89,160.14l-.7-2.11a6.78,6.78,0,0,1-5.39,2.47c-4.29,0-6.26-2.4-6.26-7.15V142.9h4.57v10.49c0,2.64,1,3.59,3,3.59a5.54,5.54,0,0,0,3.1-1V142.9h4.68v17.24Z"/><path class="a" d="M81.81,159a13.3,13.3,0,0,1-5.91,1.52c-5.14,0-8.24-2.93-8.24-9,0-5.63,3.1-9,8.2-9A11.71,11.71,0,0,1,81.78,144l-1.2,3.14A8.55,8.55,0,0,0,76.25,146c-2.39,0-3.91,1.62-3.91,5.49s1.45,5.49,4,5.49a10.13,10.13,0,0,0,4.68-1.3Z"/><path class="a" d="M94.83,160.14l-.63-2a6.17,6.17,0,0,1-5,2.4c-3.45,0-5.78-2.22-5.78-5.53s2.37-5.1,6.52-5.1h3.62V149c0-2.21-1.27-2.91-3-2.91a12.53,12.53,0,0,0-5.18,1.15L84.17,144A17.36,17.36,0,0,1,91,142.54c4.9,0,7,2.26,7,6.66v10.94Zm-1.3-7.53H90.68c-1.9,0-2.78.92-2.78,2.22a2.3,2.3,0,0,0,2.57,2.53,5.13,5.13,0,0,0,3.06-1.16Z"/><path class="a" d="M115,159a13.35,13.35,0,0,1-5.92,1.52c-5.13,0-8.23-2.93-8.23-9,0-5.63,3.1-9,8.2-9A11.65,11.65,0,0,1,115,144l-1.19,3.14a8.61,8.61,0,0,0-4.33-1.06c-2.4,0-3.91,1.62-3.91,5.49S107,157,109.51,157a10.06,10.06,0,0,0,4.68-1.3Z"/><path class="a" d="M118.84,160.14V146.21l-2-.43V142.9h6.59v17.24Zm-.14-24.28h4.64v4.19H118.7Z"/><path class="a" d="M142.42,151.49c0,5.87-3,9-8.1,9s-8.09-3.1-8.09-9c0-5.07,2.81-8.94,8.09-8.94s8.1,3.87,8.1,8.94m-12.35-11.27-.46-2.64,8.9-2.5.6,3.38Zm7.63,11.27c0-4.16-1.23-5.6-3.38-5.6s-3.34,1.48-3.34,5.6,1.09,5.63,3.34,5.63,3.38-1.52,3.38-5.63"/><path class="a" d="M155.9,160.14V149.9c0-2.6-1-3.83-3.1-3.83a5.56,5.56,0,0,0-3,1.05v13h-4.61V142.9h3.16l.71,2a7.14,7.14,0,0,1,5.45-2.33c4.37,0,6.09,2.57,6.09,6.94v10.66Z"/><rect class="b" width="102.42" height="25.02"/><rect class="c" x="102.42" width="128.14" height="25.02"/></svg>