<svg xmlns="http://www.w3.org/2000/svg" viewBox="0 0 331.12 117.41"><defs><style>.a{fill:#367b98;}</style></defs><path class="a" d="M0,3.35Q0,0,3.35,0H24q3.34,0,3.35,3.35V5.79C27.31,8,26.19,9.14,24,9.14H10.67v7.93H20.6q3.36,0,3.36,3.35v2.44c0,2.24-1.12,3.35-3.36,3.35H10.67v8.23H24.81q3.35,0,3.35,3.35v2.44q0,3.36-3.35,3.36H3.35Q0,43.59,0,40.23Z"/><path class="a" d="M32.61,41.45a2.73,2.73,0,0,1-1.55-2,4.07,4.07,0,0,1,.7-2.62l.91-1.4a3.16,3.16,0,0,1,2-1.53,4.7,4.7,0,0,1,2.66.55c.77.33,1.64.68,2.62,1.07a9.15,9.15,0,0,0,3.35.58,3.61,3.61,0,0,0,2.22-.52,1.56,1.56,0,0,0,.65-1.25,1.64,1.64,0,0,0-1.1-1.46,19.63,19.63,0,0,0-2.71-1.07c-1.08-.34-2.26-.73-3.54-1.16a13.65,13.65,0,0,1-3.54-1.77,9.63,9.63,0,0,1-2.71-2.92,8.6,8.6,0,0,1-1.1-4.54A8.72,8.72,0,0,1,35.23,14a13.07,13.07,0,0,1,4.15-1.89,19.46,19.46,0,0,1,5.12-.64,18,18,0,0,1,5.21.67,29.89,29.89,0,0,1,3.69,1.34A2.7,2.7,0,0,1,55,15.36,4,4,0,0,1,54.62,18l-.73,1.47a2.91,2.91,0,0,1-1.77,1.76,4.24,4.24,0,0,1-2.68-.3c-.73-.29-1.55-.56-2.44-.82a10.13,10.13,0,0,0-2.93-.4,3.54,3.54,0,0,0-2.25.49,1.48,1.48,0,0,0-.55,1.16,1.58,1.58,0,0,0,1.1,1.43,22.39,22.39,0,0,0,2.71,1l3.53,1.13a13.26,13.26,0,0,1,3.54,1.74,9.88,9.88,0,0,1,2.71,2.86A8.31,8.31,0,0,1,56,34a9.66,9.66,0,0,1-.88,4.09,9.19,9.19,0,0,1-2.57,3.26,12.18,12.18,0,0,1-4.08,2.16,17.1,17.1,0,0,1-5.39.8,18.16,18.16,0,0,1-6.16-1A25.48,25.48,0,0,1,32.61,41.45Z"/><path class="a" d="M58.88,27.86A16.72,16.72,0,0,1,60,21.73a15.45,15.45,0,0,1,3.39-5.24,16.56,16.56,0,0,1,5.48-3.66,19.25,19.25,0,0,1,7.47-1.37,18.4,18.4,0,0,1,6.1.89,18,18,0,0,1,4,1.93,3,3,0,0,1,1.43,2.06,3.86,3.86,0,0,1-.7,2.55l-1,1.59a2.86,2.86,0,0,1-2,1.56,4.46,4.46,0,0,1-2.56-.58,10.89,10.89,0,0,0-2.07-.83,9.34,9.34,0,0,0-2.56-.33,8,8,0,0,0-3.29.63,6.94,6.94,0,0,0-2.35,1.7A6.79,6.79,0,0,0,70,25a8.14,8.14,0,0,0-.46,2.72A8.23,8.23,0,0,0,70,30.52,7.39,7.39,0,0,0,71.5,33a7.7,7.7,0,0,0,2.44,1.78,8,8,0,0,0,3.48.7,8.7,8.7,0,0,0,3-.55,17.88,17.88,0,0,0,2.63-1.22,3.84,3.84,0,0,1,2.65-.61,3,3,0,0,1,1.92,1.77l.79,1.53A4.41,4.41,0,0,1,88.94,39a3.07,3.07,0,0,1-1.4,2,23.53,23.53,0,0,1-4.45,2.21,18.24,18.24,0,0,1-6.71,1.11A19.63,19.63,0,0,1,68.91,43a16.2,16.2,0,0,1-5.48-3.63A15.48,15.48,0,0,1,60,34.08,17.16,17.16,0,0,1,58.88,27.86Z"/><path class="a" d="M92.9,15.54q0-3.34,3.35-3.35h3.42q3.35,0,3.35,3.35v2c0,.28,0,.52,0,.73a6.08,6.08,0,0,0,0,.61,3.08,3.08,0,0,0-.06.61H103a11.21,11.21,0,0,1,1.16-2.56,11.47,11.47,0,0,1,1.89-2.44,10.5,10.5,0,0,1,2.46-1.83,6,6,0,0,1,2.84-.73,2.62,2.62,0,0,1,2.23.85,4.17,4.17,0,0,1,.63,2.5v3.41c0,2.24-1.11,3.36-3.35,3.36a6.61,6.61,0,0,0-5.61,2.8,9.23,9.23,0,0,0-1.37,3,14,14,0,0,0-.45,3.59v8.84q0,3.36-3.36,3.36H96.25q-3.34,0-3.35-3.36Z"/><path class="a" d="M117.59,15.54c0-2.23,1.11-3.35,3.35-3.35h3.84q3.34,0,3.35,3.35V40.23q0,3.36-3.35,3.36h-3.84c-2.24,0-3.35-1.12-3.35-3.36Zm3.47-7.31q-3.34,0-3.35-3.35V3.35q0-3.34,3.35-3.35h3.6Q128,0,128,3.35V4.88q0,3.35-3.35,3.35Z"/><path class="a" d="M134.41,3.35q0-3.34,3.35-3.35h3.84Q145,0,145,3.35v9.39c0,.41,0,.77,0,1.1s0,.61,0,.85a5.46,5.46,0,0,0-.06.73H145a9.1,9.1,0,0,1,2.13-1.95,12.78,12.78,0,0,1,2.68-1.37,10.51,10.51,0,0,1,3.84-.64,13.29,13.29,0,0,1,5.67,1.19A12.64,12.64,0,0,1,163.67,16a16,16,0,0,1,2.87,5.15,20,20,0,0,1,1,6.59,19.81,19.81,0,0,1-1.12,6.85,16.08,16.08,0,0,1-3.08,5.25,13.43,13.43,0,0,1-4.57,3.32,13.92,13.92,0,0,1-5.67,1.16,11.67,11.67,0,0,1-4.24-.67,10.22,10.22,0,0,1-2.71-1.53,9,9,0,0,1-2-2.19H144v.18a.66.66,0,0,0,0,.21.78.78,0,0,1,0,.22v.24a2.61,2.61,0,0,1-.85,2,3.54,3.54,0,0,1-2.5.8h-3q-3.34,0-3.35-3.36Zm10.24,24.42a10.7,10.7,0,0,0,.4,3,7.77,7.77,0,0,0,1.16,2.48A5.66,5.66,0,0,0,148.1,35a5.1,5.1,0,0,0,2.59.64,5.86,5.86,0,0,0,4.45-2A7.93,7.93,0,0,0,157,28a8.75,8.75,0,0,0-1.68-5.6,5.36,5.36,0,0,0-4.42-2.11,6.15,6.15,0,0,0-2.35.46,5.5,5.5,0,0,0-2,1.38,6.83,6.83,0,0,0-1.37,2.32A9.47,9.47,0,0,0,144.65,27.77Z"/><path class="a" d="M172.15,15.54c0-2.23,1.11-3.35,3.35-3.35h3.84q3.34,0,3.35,3.35V40.23q0,3.36-3.35,3.36H175.5c-2.24,0-3.35-1.12-3.35-3.36Zm3.47-7.31c-2.24,0-3.35-1.12-3.35-3.35V3.35c0-2.23,1.11-3.35,3.35-3.35h3.6q3.34,0,3.35,3.35V4.88q0,3.35-3.35,3.35Z"/><path class="a" d="M187.14,27.86a18.16,18.16,0,0,1,1.13-6.46,14.81,14.81,0,0,1,8.38-8.66,17.54,17.54,0,0,1,6.83-1.28,15.62,15.62,0,0,1,6.18,1.16A12.91,12.91,0,0,1,217,20.54a18.05,18.05,0,0,1,1,5.92,3.55,3.55,0,0,1-1,2.34,3.19,3.19,0,0,1-2.56,1.13H197.93a6.27,6.27,0,0,0,2.68,4.22,8.38,8.38,0,0,0,4.64,1.33,10.59,10.59,0,0,0,3-.43A15.1,15.1,0,0,0,211,34a4.38,4.38,0,0,1,2.63-.42,3,3,0,0,1,1.89,1.7l.85,1.6a3.93,3.93,0,0,1,.49,2.61,3,3,0,0,1-1.65,2,25.38,25.38,0,0,1-4.42,1.91,20,20,0,0,1-6.37.92A18.49,18.49,0,0,1,197,42.91a16.15,16.15,0,0,1-5.39-3.68A15.62,15.62,0,0,1,188.27,34,17.15,17.15,0,0,1,187.14,27.86Zm20.42-4a5,5,0,0,0-1.16-3.33,3.94,3.94,0,0,0-3.17-1.37,4.25,4.25,0,0,0-3.47,1.4,7.93,7.93,0,0,0-1.59,3.3Z"/><path class="a" d="M222.31,15.54q0-3.34,3.35-3.35h3.42q3.28,0,3.29,3.35v.55a1,1,0,0,1,0,.25,1,1,0,0,0,0,.24v.31h.12a13.46,13.46,0,0,1,1.4-1.89,9.2,9.2,0,0,1,2.08-1.74A12.11,12.11,0,0,1,238.74,12a12,12,0,0,1,3.69-.52,15.59,15.59,0,0,1,4.45.61,9.05,9.05,0,0,1,3.57,2,9.71,9.71,0,0,1,2.37,3.63,15.22,15.22,0,0,1,.89,5.55v17q0,3.36-3.36,3.36h-3.84q-3.34,0-3.35-3.36v-15a4.75,4.75,0,0,0-.85-3.17,3.32,3.32,0,0,0-2.63-1,6.43,6.43,0,0,0-3,.67,6.2,6.2,0,0,0-2.14,1.83,7.87,7.87,0,0,0-1.25,2.68,12.74,12.74,0,0,0-.39,3.17V40.23q0,3.36-3.35,3.36h-3.85q-3.34,0-3.35-3.36Z"/><path class="a" d="M257.85,27.86a20.15,20.15,0,0,1,1.07-6.74,15.72,15.72,0,0,1,2.95-5.18,12.72,12.72,0,0,1,4.55-3.32,14.22,14.22,0,0,1,5.76-1.16,13.22,13.22,0,0,1,3.93.49,10.81,10.81,0,0,1,2.53,1.1,6.3,6.3,0,0,1,1.76,1.52h.13a1.35,1.35,0,0,1-.06-.43V3.35c0-2.23,1.11-3.35,3.35-3.35h3.84Q291,0,291,3.35V40.23q0,3.36-3.35,3.36h-3.17c-2.24,0-3.35-1-3.35-3.05v-.61a.46.46,0,0,1,.06-.18h-.12a10.34,10.34,0,0,1-2.14,2.31,11.93,11.93,0,0,1-2.8,1.56,11.08,11.08,0,0,1-4.15.7,13.85,13.85,0,0,1-5.82-1.19,12.7,12.7,0,0,1-4.45-3.38,15.68,15.68,0,0,1-2.86-5.22A21,21,0,0,1,257.85,27.86Zm10.61,0a8.8,8.8,0,0,0,1.7,5.66,5.46,5.46,0,0,0,4.45,2.11,5.93,5.93,0,0,0,2.29-.46,5.23,5.23,0,0,0,2-1.41,7,7,0,0,0,1.37-2.41,10.43,10.43,0,0,0,.52-3.49,10.26,10.26,0,0,0-.37-2.76,7.26,7.26,0,0,0-1.15-2.41,6.06,6.06,0,0,0-1.95-1.72,5.46,5.46,0,0,0-2.69-.64,5.77,5.77,0,0,0-4.33,1.93A7.86,7.86,0,0,0,268.46,27.83Z"/><path class="a" d="M295.52,28a16.11,16.11,0,0,1,1.4-6.77A15.93,15.93,0,0,1,300.73,16a17.34,17.34,0,0,1,5.64-3.35,19.88,19.88,0,0,1,6.89-1.19,20.26,20.26,0,0,1,7,1.19A17.27,17.27,0,0,1,325.91,16a15.93,15.93,0,0,1,3.81,5.21,16.11,16.11,0,0,1,1.4,6.77,15.76,15.76,0,0,1-1.4,6.68,16.12,16.12,0,0,1-3.81,5.18,16.93,16.93,0,0,1-5.64,3.32,21.4,21.4,0,0,1-13.9,0,16.93,16.93,0,0,1-5.64-3.32,16.12,16.12,0,0,1-3.81-5.18A15.76,15.76,0,0,1,295.52,28Zm10.67,0a8,8,0,0,0,.58,3.14,7,7,0,0,0,1.55,2.36A6.57,6.57,0,0,0,310.58,35a7.48,7.48,0,0,0,5.48,0,6.57,6.57,0,0,0,2.26-1.48,7,7,0,0,0,1.55-2.36,8,8,0,0,0,.58-3.14,8.3,8.3,0,0,0-.58-3.18,7.3,7.3,0,0,0-1.55-2.41,6.85,6.85,0,0,0-5-2.09,7,7,0,0,0-2.74.54,6.91,6.91,0,0,0-2.26,1.55,7.3,7.3,0,0,0-1.55,2.41A8.3,8.3,0,0,0,306.19,28Z"/><path class="a" d="M52.24,87.42a23,23,0,0,1,1.65-8.75,21,21,0,0,1,4.66-7.07,21.43,21.43,0,0,1,7.22-4.72,26,26,0,0,1,18.53,0A21,21,0,0,1,96.19,78.67a23,23,0,0,1,1.65,8.75,24,24,0,0,1-1.65,9A21.41,21.41,0,0,1,84.3,108.45a25.13,25.13,0,0,1-18.53,0,21.75,21.75,0,0,1-7.22-4.85,21.47,21.47,0,0,1-4.66-7.22A24,24,0,0,1,52.24,87.42Zm11,0a14.71,14.71,0,0,0,.89,5.18,12.71,12.71,0,0,0,2.44,4.12,11.38,11.38,0,0,0,3.71,2.74,11.66,11.66,0,0,0,9.45,0,11.31,11.31,0,0,0,3.72-2.74,12.71,12.71,0,0,0,2.44-4.12,14.71,14.71,0,0,0,.88-5.18,13.67,13.67,0,0,0-.88-5,12.27,12.27,0,0,0-2.44-4,10.86,10.86,0,0,0-3.72-2.62,12.23,12.23,0,0,0-9.45,0,10.92,10.92,0,0,0-3.71,2.62,12.27,12.27,0,0,0-2.44,4A13.67,13.67,0,0,0,63.27,87.42Z"/><path class="a" d="M102.23,81.45c0-2.24,1.11-3.36,3.35-3.36H109q3.3,0,3.3,3.36V82a1,1,0,0,1,0,.25.66.66,0,0,0,0,.24v.31h.12a12.72,12.72,0,0,1,1.4-1.89,9.36,9.36,0,0,1,2.07-1.74,12.62,12.62,0,0,1,2.84-1.28,12.15,12.15,0,0,1,3.68-.52,15.54,15.54,0,0,1,4.45.61,9.05,9.05,0,0,1,3.57,2,9.61,9.61,0,0,1,2.38,3.63,15.24,15.24,0,0,1,.88,5.55v17q0,3.36-3.35,3.36h-3.84c-2.24,0-3.35-1.12-3.35-3.36v-15a4.75,4.75,0,0,0-.86-3.17,3.3,3.3,0,0,0-2.62-1,6.6,6.6,0,0,0-3,.67,6.26,6.26,0,0,0-2.13,1.83,7.69,7.69,0,0,0-1.25,2.68,12.35,12.35,0,0,0-.4,3.17v10.85c0,2.24-1.11,3.36-3.35,3.36h-3.84c-2.24,0-3.35-1.12-3.35-3.36Z"/><path class="a" d="M139.29,69.25q0-3.34,3.35-3.35h3.84q3.36,0,3.36,3.35V97.42a3.87,3.87,0,0,0,.51,2.37,2.12,2.12,0,0,0,1.25.74,2.85,2.85,0,0,1,1.77.79,2.82,2.82,0,0,1,.67,2.07v3a3.68,3.68,0,0,1-.79,2.5,3.3,3.3,0,0,1-2.62.91,23.38,23.38,0,0,1-4.06-.36,8.33,8.33,0,0,1-3.65-1.62,8.83,8.83,0,0,1-2.63-3.6,16.29,16.29,0,0,1-1-6.31Z"/><path class="a" d="M158.12,81.45q0-3.36,3.36-3.36h3.84q3.35,0,3.35,3.36v24.68q0,3.36-3.35,3.36h-3.84q-3.36,0-3.36-3.36Zm3.48-7.32c-2.24,0-3.35-1.12-3.35-3.35V69.25c0-2.23,1.11-3.35,3.35-3.35h3.6q3.35,0,3.35,3.35v1.53q0,3.34-3.35,3.35Z"/><path class="a" d="M174.89,81.45c0-2.24,1.11-3.36,3.35-3.36h3.41q3.3,0,3.3,3.36V82a1,1,0,0,1,0,.25.66.66,0,0,0,0,.24v.31H185a12.72,12.72,0,0,1,1.4-1.89,9.36,9.36,0,0,1,2.07-1.74,12.62,12.62,0,0,1,2.84-1.28,12.15,12.15,0,0,1,3.68-.52,15.54,15.54,0,0,1,4.45.61A9,9,0,0,1,203,80a9.61,9.61,0,0,1,2.38,3.63,15.24,15.24,0,0,1,.88,5.55v17q0,3.36-3.35,3.36h-3.84c-2.24,0-3.35-1.12-3.35-3.36v-15a4.75,4.75,0,0,0-.86-3.17,3.3,3.3,0,0,0-2.62-1,6.6,6.6,0,0,0-3,.67,6.26,6.26,0,0,0-2.13,1.83,7.69,7.69,0,0,0-1.25,2.68,12.35,12.35,0,0,0-.4,3.17v10.85c0,2.24-1.11,3.36-3.35,3.36h-3.84c-2.24,0-3.35-1.12-3.35-3.36Z"/><path class="a" d="M210.3,93.76a18.16,18.16,0,0,1,1.13-6.46,14.81,14.81,0,0,1,8.38-8.66,17.58,17.58,0,0,1,6.83-1.28,15.67,15.67,0,0,1,6.19,1.16,13.14,13.14,0,0,1,4.57,3.17,13.32,13.32,0,0,1,2.8,4.75,18.05,18.05,0,0,1,1,5.92,3.55,3.55,0,0,1-1,2.34,3.19,3.19,0,0,1-2.56,1.13H221.09a6.25,6.25,0,0,0,2.69,4.22,8.35,8.35,0,0,0,4.63,1.33,10.66,10.66,0,0,0,3.05-.43,16.59,16.59,0,0,0,2.68-1,4.28,4.28,0,0,1,2.62-.43,3,3,0,0,1,1.89,1.71l.85,1.59a3.93,3.93,0,0,1,.49,2.61,3,3,0,0,1-1.65,2,25.87,25.87,0,0,1-4.42,1.9,19.89,19.89,0,0,1-6.36.92,18.59,18.59,0,0,1-7.44-1.4,16.26,16.26,0,0,1-5.4-3.69,15.62,15.62,0,0,1-3.29-5.28A17.15,17.15,0,0,1,210.3,93.76Zm20.42-4a5,5,0,0,0-1.15-3.32,3.93,3.93,0,0,0-3.17-1.38,4.26,4.26,0,0,0-3.48,1.4,7.8,7.8,0,0,0-1.58,3.3Z"/><path class="a" d="M245.36,109.49H275c2.24,0,3.35,1.11,3.35,3.35v1.22c0,2.23-1.11,3.35-3.35,3.35H245.36q-3.36,0-3.36-3.35v-1.22C242,110.6,243.12,109.49,245.36,109.49Z"/></svg>