<svg xmlns="http://www.w3.org/2000/svg" viewBox="0 0 230.09 230.35"><defs><style>.a{fill:#0f69b4;}.b{fill:#eb3c46;}.c{fill:#fff;}</style></defs><rect class="a" width="94.26" height="230.35"/><rect class="b" x="94.26" width="135.83" height="230.35"/><path class="c" d="M55.32,47.44V50.6a3.87,3.87,0,0,0,0-3.16"/><path class="c" d="M61.52,30.28c.09,0,0-.44.37-.47a1.11,1.11,0,0,1,1,.66c.08.4-.25,1.38,1,1.52,0,0,0,.2,0,.41h0a1.81,1.81,0,0,1-.18.68H64c1.71.08,2.68,0,3.17-.57a3.21,3.21,0,0,0,.45-.62,3.11,3.11,0,0,0,.27-2.37h0l0-.13-.11-.23a5.08,5.08,0,0,0-2.63-2l-.26,0,0,0,0,0h.27a4,4,0,0,1,2.8,1.95,1.65,1.65,0,0,0,.61-1.15h0a3.11,3.11,0,0,1,.21-1.14.29.29,0,0,0-.13-.38.27.27,0,0,0-.37.14c-.23.47-.77.21-.55-.27a.28.28,0,0,0-.12-.38.29.29,0,0,0-.38.14c-.22.46-.74.2-.53-.25a.29.29,0,0,0-.12-.39.29.29,0,0,0-.37.14c-.23.48-.77.21-.54-.26a.3.3,0,0,0-.13-.39.29.29,0,0,0-.37.15,3,3,0,0,1-.46.72,5.53,5.53,0,0,1,2.81,1.49l.31.37h0l0,.1h0a1.61,1.61,0,0,0-.32-.32,6,6,0,0,0-3-1.47c-.56.07-.4.69-.34,1.09a1.38,1.38,0,0,0-1.69,1.13,1.84,1.84,0,0,0,.17.76V29s-.17-.09-.24-.28a1.78,1.78,0,0,1-.12-.48c-.76.05-1.45.45-1.4,1.14a1.29,1.29,0,0,0,.69.94m2.68-1.06c.19-.23.26.78,1,.49-.57.68-1.33,0-1-.49m-.06-.5c.3-.18.57-.79,1-.49a6.82,6.82,0,0,1,.67.52,1.85,1.85,0,0,1,.62.54c.14.27-.23.93-.64.34-.27-.43-.66-1.22-1.26-.91s-.84.61-1,.27c0-.17.36-.16.55-.27M62,28.85c-.13.28-.54.28-.59.65-.35-.31.29-1,.59-.65"/><path class="c" d="M82.3,62.47c-.53-.64-1.92-.32-1.92-.32a2.07,2.07,0,0,0-1.32-2.83,1.81,1.81,0,0,0-1.53.16l0,0h0l-.15.13a1.07,1.07,0,0,0,.77,1.81,1.06,1.06,0,0,0,.61-.2,1.08,1.08,0,0,0,.43-.63,1.06,1.06,0,0,1,.4.5C80.16,63,78,63.7,78,63.7a8.39,8.39,0,0,1-7.61-1l.83-.44a1.77,1.77,0,0,1,.74-.17v.14a.94.94,0,0,0,1.87,0,.88.88,0,0,0-.13-.46h0l-.07-.1c-.55-.84-2.46-.29-2.46-.29a3.44,3.44,0,0,0,.08-2.69c-.35-.58-.29-.79-.29-.79,0-.56-.14-.61-.14-.61a.7.7,0,0,0-.8-.18c-.76.17-.93-.15-.93-.15-.63-.44-.91-.17-.91-.17-.28.18.1.66.1.66-.67,0-.87.86-.87.86-.28,1.44.9,1.56.9,1.56.85,0,.87-.65.87-.65.1-.66-.84-.7-.84-.7.16-.39.44-.39.44-.39,1-.24,1.45.88,1.45.88A2.15,2.15,0,0,1,70,61.42a.27.27,0,0,1-.33.07,9.57,9.57,0,0,1-1.36-.83l-.07,0h-.33a3.07,3.07,0,0,0-1,.22c.38.4,1.62,1.45,1.62,1.45-.93.73-1.47.22-1.47.22a1.92,1.92,0,0,1-.27-1.62l-.1,0c-.43.19-.87.36-1.31.54.44.76,1.14,1.92,1.14,1.92-1.07.4-1.31-1.05-1.36-1.84q-.32.14-.63.24a1.8,1.8,0,0,1,.06.31,4.35,4.35,0,0,0,.79,1.76,1.35,1.35,0,0,0-1.24.33,1.34,1.34,0,0,0-.45,1.2.55.55,0,0,0,1.09,0,.56.56,0,0,0-.52-.55c.24-.59.81-.11.81-.11.83.74-.47,1.59-.47,1.59-.93.62-1.82-.57-1.82-.57A7.11,7.11,0,0,0,63.9,62l-1,.33a2.35,2.35,0,0,1-.63,2.47c-.31-.21-.35-1.06-.35-1.06q-.15-.54-.33-1l-.88.23a14.63,14.63,0,0,1,.47,2.43,1.36,1.36,0,0,1-.71.26c-.76.07-.36-.36-.36-.36.38-.32.3-.56.3-.56-.23-.53-1.07,0-1.07,0-1.12.62-.78,1.28-.78,1.28.14.4,1.27.8,1.27.8a2.91,2.91,0,0,1-1.93.24.78.78,0,0,0-.58-.67l-.07,0a.71.71,0,0,0-.73.29l-.14.24-.69-.14c-.48-.08-.75-1.45-.9-2.66l-.57.07c.18,1.29.42,2.43.42,2.43a5.77,5.77,0,0,1-1.25-.71,2.92,2.92,0,0,0-2.17-.51,1.36,1.36,0,1,0,1.6,1.38,8.74,8.74,0,0,1,.92.5,5.11,5.11,0,0,0,2.66.9,1,1,0,0,0,1,.79.93.93,0,0,0,.85-.51c2.6-.09,3.56-1.23,3.56-1.23.27-.36.33-.15.33-.15.95,1.38,2.79.54,2.79.54.36-.18.44,0,.44,0a.7.7,0,0,0,.94.28c.73-.37.3-.83.3-.83-.24-.26.06-.25.06-.25.86.13,1-.37,1-.37.18-.39-.44-.73-.44-.73-.17-.22.16-.39.16-.39.52-.3.43-.6.43-.6.65,0,.6-.28.6-.28,0-.26-.79-.25-.79-.25-.65-.06-.51-.39-.51-.39a13.08,13.08,0,0,0,2.38-.45,11.91,11.91,0,0,0,5.2,2.11,2.22,2.22,0,0,1-.06.79h-.06a.5.5,0,1,0,0,1l.14,0c1-.27,1.08-1.73,1.08-1.73a6.16,6.16,0,0,0,4.76-1.87c.28-.24.42-.16.48-.09h0a.79.79,0,0,0,.62.3.82.82,0,0,0,.67-.35,1.15,1.15,0,0,0,.14-.45h0a.77.77,0,0,0-.16-.53"/><path class="c" d="M48.17,66.11a.64.64,0,0,0,.32-.44A1.28,1.28,0,0,0,48,64.53l-1,0h0l-1,0a1.28,1.28,0,0,0-.52,1.14.64.64,0,0,0,.32.44s-.71.31-.72.8c0,0-.09.37.55.88a3.35,3.35,0,0,1,.59.91s0,.55.8.55.8-.55.8-.55a3.35,3.35,0,0,1,.59-.91c.63-.51.56-.88.56-.88,0-.49-.73-.8-.73-.8"/><polygon class="c" points="53.46 62.97 53.83 62.93 53.59 62.5 53.46 62.97"/><polygon class="c" points="40.93 62.99 41.3 63.03 41.16 62.55 40.93 62.99"/><path class="c" d="M39.47,62h-.06l-.08.57a.58.58,0,0,0,.26,0l.12-.07.06-.17,0-.24a.46.46,0,0,0-.26-.09"/><path class="c" d="M44.86,62.4a.34.34,0,0,0-.29.15.87.87,0,0,0-.11.47,1.1,1.1,0,0,0,.07.51.33.33,0,0,0,.28.17.35.35,0,0,0,.3-.13,1,1,0,0,0,.12-.5.94.94,0,0,0-.08-.49.33.33,0,0,0-.29-.18"/><path class="c" d="M49.56,62.4a.31.31,0,0,0-.28.16.88.88,0,0,0-.08.48,1,1,0,0,0,.12.5.31.31,0,0,0,.29.15.36.36,0,0,0,.28-.15,1.33,1.33,0,0,0,0-1,.3.3,0,0,0-.3-.15"/><polygon class="c" points="36.73 62.38 37.1 62.44 36.99 61.96 36.73 62.38"/><path class="c" d="M29.57,59.55l-.2.56.07,0c.11,0,.2,0,.25,0l.13-.18,0-.19-.08-.13-.2-.09"/><path class="c" d="M31.05,60.21a1.11,1.11,0,0,0-.23.43,1.18,1.18,0,0,0-.07.51.35.35,0,0,0,.23.24.33.33,0,0,0,.32,0,.91.91,0,0,0,.25-.45,1,1,0,0,0,.06-.49.35.35,0,0,0-.24-.25.36.36,0,0,0-.32.06"/><path class="c" d="M33.11,60.68l-.06,0-.15.56a.81.81,0,0,0,.26.05l.12-.06.08-.16v-.24a.44.44,0,0,0-.24-.13"/><path class="c" d="M61.18,60.7a.5.5,0,0,0-.27,0l0,0,.15.56a1.11,1.11,0,0,0,.24-.09l.08-.12V60.9l-.14-.2"/><polygon class="c" points="64.31 60.53 64.65 60.4 64.31 60.04 64.31 60.53"/><path class="c" d="M65.21,58.43a1,1,0,0,0-.35.06,49.56,49.56,0,0,1-17.91,3,49.56,49.56,0,0,1-17.91-3,1,1,0,0,0-.35-.06.85.85,0,0,0-.52.16L26,60.32h0a3.79,3.79,0,0,1,1.37.34c5.72,2.51,12.28,3.53,19.6,3.6s13.88-1.09,19.59-3.6a3.94,3.94,0,0,1,1.38-.34h0l-2.2-1.73a.85.85,0,0,0-.52-.16M44.84,61.8l.46,0-.54.33h-.1ZM30.22,60.1l-.17.21-.27,0a1.2,1.2,0,0,1-.35-.09l-.11,0-.13.34v.15l.12.08,0,0,0,.11-.78-.28,0-.12h.18l.08-.13.31-.85,0-.14L29,59.35l0,0,0-.11.59.19.33.14.2.15.09.2,0,.2M32,61a.73.73,0,0,1-.38.46.83.83,0,0,1-.66,0,.93.93,0,0,1-.42-.25.6.6,0,0,1-.19-.38.84.84,0,0,1,0-.39.72.72,0,0,1,.23-.35A.64.64,0,0,1,31,60a.89.89,0,0,1,.43,0,.83.83,0,0,1,.54.41A.8.8,0,0,1,32,61m1.55.76a1.47,1.47,0,0,0,.12.3l.11.07,0,.12-.46-.13a1.68,1.68,0,0,1-.14-.44,1.7,1.7,0,0,0-.07-.23l0-.08-.15,0-.1.35v.15l.13.08h0l0,.12-.79-.22,0-.12h.18l.07-.12.24-.88v-.15l-.13-.07,0,0,0-.12.59.17.14,0,.28.08.16.11.11.18v.19a.39.39,0,0,1-.4.29,1.14,1.14,0,0,1,.17.38m2.51,1-1.37-.29,0-.12h.18l.06-.13.19-.88v-.16L35,61.14h0L35,61l.8.17,0,.11h-.19l-.06.14-.18.85,0,.14.05.05.16.06a.4.4,0,0,0,.31,0,.52.52,0,0,0,.19-.24l.12,0Zm1.68.31L37,63l0-.12h.13l0,0V62.7l0-.12-.46-.09,0,.08,0,.1,0,.08.12,0,0,.13-.5-.09,0-.12c.09,0,.19-.05.28-.21l.67-1.08.13,0,.27,1.25a.38.38,0,0,0,.09.23l.1,0Zm2.57.36-.47-.06a3,3,0,0,1-.19-.43,1.72,1.72,0,0,0-.1-.22l-.06-.06-.16,0,0,.36,0,.15.14.06h0l0,.13-.82-.11,0-.13h0l.15,0,0-.13.12-.9,0-.15-.13-.06h0v-.13l.61.08.14,0,.29.05L40,62l.12.16,0,.2a.4.4,0,0,1-.36.32A1.51,1.51,0,0,1,40,63a1.29,1.29,0,0,0,.16.28l.12.05Zm1.68.17-.75-.07v-.12h.13l0,0v-.11l0-.12-.47,0,0,.07,0,.11,0,.08.12,0v.13l-.5,0v-.13c.1,0,.19-.06.26-.22L41.29,62h.13l.36,1.23c0,.12.07.2.11.22l.11.05Zm1.65-1.31-1,1.23.35,0h.22l.13-.09.11-.19h.13l-.06.46-1.37-.1v-.1l1-1.23-.25,0a.53.53,0,0,0-.31,0c-.06,0-.1.1-.15.21H42.3l.05-.4,1.29.09Zm1.82,1.31a.84.84,0,0,1-.63.2.93.93,0,0,1-.48-.13.66.66,0,0,1-.28-.32A.84.84,0,0,1,44,63a.76.76,0,0,1,.13-.41.64.64,0,0,1,.32-.27.88.88,0,0,1,.42-.09.89.89,0,0,1,.63.26.82.82,0,0,1,.21.59.8.8,0,0,1-.25.54m2.24-1.18-.11,0-.07.09,0,.14v1.17h-.15l-1-1.12v.7a.29.29,0,0,0,.06.22l.16,0v.12H46v-.12l.12,0,.07-.09,0-.15v-.78a.2.2,0,0,0-.23-.23v-.13h.52l.84.93V62.7c0-.16-.07-.25-.21-.25v-.12h.55Zm2.55,1.12a.88.88,0,0,1-.61.26,1,1,0,0,1-.48-.1.63.63,0,0,1-.31-.29.79.79,0,0,1,0-.79.72.72,0,0,1,.3-.3.88.88,0,0,1,.42-.11.84.84,0,0,1,.64.21.77.77,0,0,1,.25.56.74.74,0,0,1-.2.56m1.3.12v-.13h0l.15,0,0-.15-.08-.9-.05-.14-.15,0h0v-.12l.82-.08v.13h0l-.14.06,0,.15.08.86,0,.13.07,0h.16a.36.36,0,0,0,.29-.13.56.56,0,0,0,.12-.28h.12l0,.51Zm2.33-.23v-.12l.12,0,0-.05,0-.06v0l-.06-.1-.47,0,0,.08,0,.11,0,.08h.12l0,.13-.5.06,0-.12c.1,0,.17-.11.21-.28l.34-1.23.13,0L54.35,63l.15.2.11,0,0,.12ZM56.5,62l-.1-.15-.1-.07h-.14l-.25,0,.08.53.12,0,.12-.06v-.16l.13,0,.08.52-.12,0-.07-.15-.12,0-.12,0,.06.41.06.14.16,0h0l0,.13-.81.13,0-.13h0l.14-.07v-.14l-.14-.9-.06-.14-.16,0h0v-.12l1.26-.21.08.41Zm1.78-.37.09.5,0,.27-.06.21-.18.19-.3.13a.86.86,0,0,1-.32,0l-.24-.11-.14-.17-.07-.23-.11-.6-.07-.13h-.16l0-.12.8-.16,0,.13h0l-.13.07v.15l.12.59.07.25.15.13.23,0,.22-.12.09-.19a1,1,0,0,0,0-.29l-.11-.5a.2.2,0,0,0-.26-.19l0-.12.56-.11,0,.12-.1,0-.06.09v.14m.69,1,0-.12h0l.13-.07v-.16l-.21-.88-.07-.13h-.18l0-.12,1.27-.3.11.38-.12,0-.11-.14-.1-.06-.14,0-.28.06.12.52.14,0,.12-.06v-.16l.12,0,.12.51-.12,0v0l-.06-.1-.15,0-.14,0,.08.37.05.13.08,0h.17l.2-.09.09-.16,0-.21.13,0,.1.49Zm2.84-.72a3.37,3.37,0,0,1-.34-.32l-.17-.16-.09,0-.16,0,.1.35.07.13h.18l0,.12-.79.22,0-.12h0l.14-.08v-.15L60.52,61l-.07-.13h-.19l0-.12.59-.16.13,0,.29-.07.2,0,.18.09.09.17a.36.36,0,0,1-.19.44,2,2,0,0,1,.33.25,1.26,1.26,0,0,0,.26.19h.13l0,.12Zm.72-.21,0-.09.41-1.5-.23.07a1,1,0,0,0-.28.14.37.37,0,0,0-.06.26l-.12,0-.1-.4,1.22-.39,0,.09L63,61.42l.33-.11.19-.09.09-.13,0-.22.12,0,.12.44Zm2.29-.79,0-.11.11-.07v-.06l0-.05,0,0-.08-.09-.44.16v.2l.07.06.12,0,0,.12-.47.18,0-.12c.09,0,.13-.14.14-.32l0-1.27.12-.05.87.94.19.16h.12l0,.11Z"/><path class="c" d="M39.26,36.78l-.8.51h1.65a7.55,7.55,0,0,1-.85-.51"/><path class="c" d="M50,37.25c-.25-.13-.55-.25-.69-.32l-.08,0a8.62,8.62,0,0,0-.9-.3H45a8.74,8.74,0,0,0-.91.3l-.08,0c-.14.07-.44.19-.68.32l-.1,0h6.91l-.09,0"/><path class="c" d="M54.42,36.81l0,0,0,0a5.92,5.92,0,0,1-.71.48H55.1l-.68-.48"/><path class="c" d="M38.34,50.59V47a4.43,4.43,0,0,0,0,3.57"/><path class="c" d="M46.64,37.76H37.82v0l.1.23a5.22,5.22,0,0,1,.35.46h8.15Z"/><path class="c" d="M46.28,38.94H38.57a5.82,5.82,0,0,1,.38.71h7.11Z"/><path class="c" d="M45.71,40.83l.21-.71H39.16a6.56,6.56,0,0,1,.24.71Z"/><path class="c" d="M45.56,41.3h-6c0,.23.08.46.1.71h5.73Z"/><path class="c" d="M39.47,44.36h3.22l-1-.71H39.61a5.89,5.89,0,0,1-.14.71"/><path class="c" d="M39.65,42.47v.07a3.83,3.83,0,0,1,0,.65h1.39l-1-.72Z"/><path class="c" d="M46.67,44.59l3.94,5.57v2.76a4.91,4.91,0,0,1,.55,0h.16V45.54h.47v7.32a7.06,7.06,0,0,0,.71-.11V45.54H53v7.09a5.83,5.83,0,0,0,.71-.29v-6.8h.47v6.54a4.31,4.31,0,0,0,.65-.54l.05-.08V46.62a10.84,10.84,0,0,1-.54-1.08h0a7.4,7.4,0,0,1-.28-.71H50l-.91.65-1.76-.65-.65-.24,6.62-2.13H48.12L48,42H53.8c0-.24.08-.48.14-.71H47.76l-.13-.47h6.44a6.55,6.55,0,0,1,.26-.71H47.41l-.14-.47h7.28a6.66,6.66,0,0,1,.39-.71H47.05l-.14-.47h8.33a7.05,7.05,0,0,1,.47-.62l0-.09H46.69l0-.1v6.93Zm3.47.95h.47V50l-.47-1.38Z"/><path class="c" d="M48.26,53.68a3.36,3.36,0,0,1,.7-.37v-4.4l-.7-.54Z"/><path class="c" d="M47.06,55.13l.26-.43,0-.06a2.31,2.31,0,0,1,.41-.56V48l-.71-.54Z"/><path class="c" d="M45.88,53.93a2.66,2.66,0,0,1,.57.71l0,.06.1.16V47.22l-.7.54Z"/><path class="c" d="M44.7,53.25a4.19,4.19,0,0,1,.71.34V48.12l-.71.53Z"/><path class="c" d="M49.43,53.15a5.56,5.56,0,0,1,.71-.17V49.8l-.71-.54Z"/><path class="c" d="M43.52,53a5.33,5.33,0,0,1,.71.15V49l-.71.54Z"/><path class="c" d="M39.52,52V45.54H40v6.72a3.89,3.89,0,0,0,.71.31v-7h.46v7.18a7,7,0,0,0,.71.12v-7.3h.48v7.34h.3l.4,0v-3l-.41.31,4-5.63h0l-1.45-2.13H40l6.62,2.13-2.42.89-.9-.65h-4a7.19,7.19,0,0,1-.27.71c-.07.18-.16.35-.25.54v5.24a3.6,3.6,0,0,0,.71.65m3.53-6.43h.47v2.07L43.05,49Z"/><path class="c" d="M50.64,44.36H53.9a4.51,4.51,0,0,1-.13-.71H51.62Z"/><path class="c" d="M53.77,42.47h-.5l-1,.72h1.45a4.19,4.19,0,0,1,0-.5v-.22"/><path class="c" d="M35.35,29.08a6.11,6.11,0,0,0,3.53.52,2.62,2.62,0,0,0,1-.42l.12-.09.06-.05a2.45,2.45,0,0,0,.79-2l0-.05c.06,0,.13.24.13.54a3.39,3.39,0,0,1-.23,1.12v.17a.69.69,0,0,0,.15.35,1.29,1.29,0,0,0,1.33.17l0,0a1,1,0,0,1-.9.4,1.47,1.47,0,0,1-.36,0,2.44,2.44,0,0,0,2.19.88l.05,0c0,.06-.23.14-.54.14a3.14,3.14,0,0,1-1.35-.31A3.77,3.77,0,0,0,44,31.65c0,.16-1,0-1.3-.06.62,2.4,1.9,2.12,1.92,2.29a.74.74,0,0,0-.37,1.1,8.14,8.14,0,0,1,2.68-.52,8.37,8.37,0,0,1,2.76.55.61.61,0,0,0,.07-.62c-.2-.6-2-1.07-3.78-.56l-.23.12h0l0-.05h0l.22-.15a4.26,4.26,0,0,1,3.2-.12h0a.89.89,0,0,0,1.16-1.05.87.87,0,0,0,1-.85l-.28.14h0a.63.63,0,0,1-.4.09v0h0l.23-.11a2.67,2.67,0,0,0,1.4-2.08.82.82,0,0,1-.7.38c-.17,0-.26,0-.27-.05l0,0a.77.77,0,0,0,.34-.14,2.8,2.8,0,0,0,.83-1.11,5.79,5.79,0,0,1-1.21-2.24,1.06,1.06,0,0,0-.87-.74h-.18l-.15,0h0c.48-.41,1,0,1.33.21.05-.9.37-1.12.4-1.11v0a3.68,3.68,0,0,0,1.56,4.11,4.85,4.85,0,0,0,5.11-.51h0a3.11,3.11,0,0,1-.83.13c-.31,0-.55-.07-.55-.12l0,0a3.57,3.57,0,0,0,.58,0c2.2-.57,2.29-3.29,1.93-3.46l0,0a2.87,2.87,0,0,1-.18.47c-.14.28-.32.46-.37.44v-.07a2.65,2.65,0,0,0,.21-2.33,2.48,2.48,0,0,0-.85-1.18,4.34,4.34,0,0,0-4.55,0,4,4,0,0,0-1.58-1,4.18,4.18,0,0,1-1.56,2.05,2,2,0,0,1-.66.34s-.15,0,0-.15a3.18,3.18,0,0,0,1.77-2.74v0A3.86,3.86,0,0,0,51,18.53c-1.07-1.18-4-1.33-5.29-.23A2.71,2.71,0,0,0,45,19.67a1.55,1.55,0,0,1,1.07-1c.59-.18,1.71-.06,1.88.62-1-1-2.8-.26-3,1.47v0c0,.12-.09.12-.09.12h0s-.11,0-.09-.78a4.94,4.94,0,0,1,.39-1.58c-2.22-.41-4.89.68-4.84,4a2.29,2.29,0,0,0,.62,1.39l0,.14c-.07,0-.34-.16-.51-.38a3.31,3.31,0,0,1-.51-1.09,6.53,6.53,0,0,0-3-.44,4,4,0,0,0-2.27,1.3,5,5,0,0,0-.5.81,3.41,3.41,0,0,0-.4,2,3.63,3.63,0,0,0,1.7,2.9m22-6.79a2,2,0,0,1,1.19,1.22,1.72,1.72,0,0,1,0,1.45h0l0,0a2.62,2.62,0,0,0-.22-1.31,1.31,1.31,0,0,0-.69-.74,4.39,4.39,0,0,1,.46.77,1.55,1.55,0,0,1,.14.61,2.44,2.44,0,0,1-.6,1.65h0v0a2.52,2.52,0,0,0,.08-2.09l-.1-.19a1.5,1.5,0,0,0-1.28-.92,2.14,2.14,0,0,1,.72.91,2,2,0,0,1-.15,2.13h0v0a2,2,0,0,1,0-.35,3.1,3.1,0,0,0,0-.85c-.34-1.44-1.53-1.95-2.39-1.1a2.52,2.52,0,0,1,3-1.1M48.67,32.53c-.19-.09-.2-.47-.17-.65.07-.48.62-.7.87-.95.06,0,0,.75-.7,1.6M48.5,31.2c-.28-.49.45-1.09.62-1.58.89-.13-.24,1.44-.62,1.58m2.33-11.36c.05.75-.36,1-.44.93l0-.08A1.84,1.84,0,0,0,50.11,19a3,3,0,0,0-.81-.56,2,2,0,0,1,1.53,1.44m-2,7.21c.65.27-.32,1.56-.4,1.81.15-.07.67-.63.88-.46s-.68,1.61-1,1.7c-1.43-1.87.4-2.43.47-3.05m-.94,3.18a5.17,5.17,0,0,1-.15,2.85c-.23-.07-.1-.48-.1-.65a10.19,10.19,0,0,0-.28-2.83A16.69,16.69,0,0,0,46,26.15a10.43,10.43,0,0,1,1.88,4.08m-6-4.52a8.28,8.28,0,0,0,4.55,3c.73.21,1.09,2.57.5,3.73-.68,0-.76-.46-.89-1,.3.24.72.56.69,0-.26-.22-1.78-.62-1.38-1.28.25-.36,1.07,1.09,1.3.61.14-1-2.91-1.29-2.82-2.13,0-.45,2.4,1.16,2.75,1.13,0-.52-3.56-2-4.64-3.88-.08-.14-.12-.26-.09-.28h0m-5.44,2.7c.82-.21,1.53-.64,1.32-1.41a.61.61,0,0,0-.56-.42,1.13,1.13,0,0,0-1,.63,1.07,1.07,0,0,1,1.23-1.1,1.22,1.22,0,0,1,1,.81c.23,1.13-.81,1.59-2,1.49m.09-5.35a2.53,2.53,0,0,1,2.56.54c1.64,1.61.74,3.88.24,4,.35-.94.52-2.37-1-2.74a3.24,3.24,0,0,0-2.74,1.06,2.49,2.49,0,0,1,3-1.52c-.32-.89-1.46-1.26-2.79-.52a4.05,4.05,0,0,0-.77.57,2.32,2.32,0,0,1,1.42-1.4"/><path class="c" d="M42.7,65.33a2.89,2.89,0,0,0-2.16.51,5.87,5.87,0,0,1-1.26.71s.24-1.14.42-2.43l-.57-.07c-.15,1.21-.42,2.59-.91,2.66l-.69.14-.13-.24a.71.71,0,0,0-.73-.29l-.07,0A.77.77,0,0,0,36,67a2.91,2.91,0,0,1-1.93-.24s1.14-.4,1.27-.8c0,0,.34-.66-.78-1.29,0,0-.84-.48-1.07,0,0,0-.08.24.3.56,0,0,.4.43-.37.36a1.33,1.33,0,0,1-.7-.26A13.37,13.37,0,0,1,33.21,63l-.88-.24q-.18.48-.33,1s0,.85-.35,1.06A2.34,2.34,0,0,1,31,62.33L30,62a7,7,0,0,0,1.13,3.71s-.89,1.19-1.82.57c0,0-1.31-.85-.47-1.6,0,0,.56-.47.81.12a.56.56,0,0,0-.52.55.54.54,0,0,0,.54.55.56.56,0,0,0,.55-.52,1.4,1.4,0,0,0-1.69-1.53,4.35,4.35,0,0,0,.79-1.76,1.8,1.8,0,0,1,.06-.31q-.31-.11-.63-.24c-.05.79-.29,2.24-1.36,1.84l1.14-1.92c-.44-.17-.87-.34-1.29-.53l-.12,0a2,2,0,0,1-.27,1.62s-.54.51-1.47-.22c0,0,1.24-1,1.62-1.45a3.07,3.07,0,0,0-1-.22h-.34l-.07,0a9.29,9.29,0,0,1-1.37.83.25.25,0,0,1-.32-.07A2.15,2.15,0,0,1,23.65,59s.46-1.12,1.45-.88c0,0,.28,0,.44.39,0,0-.94,0-.84.7,0,0,0,.69.87.65,0,0,1.18-.12.9-1.56,0,0-.2-.86-.88-.86,0,0,.38-.47.11-.66,0,0-.28-.27-.92.17,0,0-.16.32-.93.15a.68.68,0,0,0-.79.18s-.14,0-.14.61c0,0,.06.21-.28.79a2.68,2.68,0,0,0-.23,1,1.72,1.72,0,0,0-.79-.36c-.39-.41-.42-2.3-.82-3.22-.09-.22.18-1.18.19-2.2a5.56,5.56,0,0,0,4.23-3.76A7.25,7.25,0,0,0,25,46.53h.07a4,4,0,0,1,.31.74,6.86,6.86,0,0,0,3-.36l.1,0,.14-.06.34-.15.12-.06A8.48,8.48,0,0,0,32.52,43a2.86,2.86,0,0,1-1.43-.77c.74.06,1.29.36,2,.37,1.08,0,1.8-.6,3-.45,0,.06.16.56.92.87a5.53,5.53,0,0,0,.28,1.8,1.17,1.17,0,0,0,.1.23s-.9.69-.66,1.27c.06.15.13.31.18.45l-.12,0c-.14-.06-.3.17-.5.48-.1.16-.57,1.14-.21,1.23l.22,0A4.62,4.62,0,0,0,37,52v0c0,.09,1.34,2.2,4.81,2.2h0c.35,0,3.4.06,4.49,2.09.06.12.3.46.56.46s.51-.34.58-.46c1.09-2,4.14-2.09,4.48-2.09H52c3.48,0,4.77-2.11,4.82-2.2v0a4.24,4.24,0,0,0,.71-1.88c.68-.37.65-1.9.65-2.18a2.5,2.5,0,0,0,1.44,1.24c-.13.73-.09,1.92.69,2.08.23,0,.44-.33.38-.6.67,1.92.11,3.1.61,3.24s.68-1.13.74-1.17a2.22,2.22,0,0,1,.28,1c0,.6-.08,1.19.19,1.29.89.15.47-2.48,1.16-2.21-.17,1.16,0,1.81.48,2,0,.53-.07,1.05-.3,1.05-1.28.29-2.46-.73-3.58-.42l-.12-.08a4.54,4.54,0,0,0-3.5-.38c-.58-.53-.8.27-1,.18-1.08-.62-1.68.42-2,.47s-.72-.54-1.21.68c-.23.54-1.43.77-1.53.8a.53.53,0,0,1-.6-.28,2,2,0,0,0-.14-.35l-.18-.24a.57.57,0,0,0-.48-.16.68.68,0,0,0-.5,1.09s.15-.12.3-.11a.48.48,0,0,1,.48.48h0c0,.55-.8,1.1-.8,1.1-.49.43-1.09-.17-1.09-.17a1.37,1.37,0,0,0-.58-.3.65.65,0,0,0-.52.39.64.64,0,0,0-.51-.39,1.37,1.37,0,0,0-.58.3s-.61.6-1.09.17c0,0-.84-.55-.81-1.1h0a.49.49,0,0,1,.48-.48c.16,0,.27.14.3.11a.68.68,0,0,0-.5-1.09.57.57,0,0,0-.48.16l-.18.24a2,2,0,0,0-.14.35s-.11.33-.6.28c-.09,0-1.3-.26-1.52-.8-.5-1.22-1-.64-1.22-.68s-.87-1.09-1.95-.47c-.17.09-.39-.71-1-.18a4.68,4.68,0,0,0-2.78.06c-.1-.19-.62-.29-.77-.35a3.9,3.9,0,0,1-.85-.47A6.24,6.24,0,0,0,31,54.05a2.24,2.24,0,0,1-.67-.24,6.51,6.51,0,0,1-1.9-1.56l-.28-.37a2.52,2.52,0,0,1-.47-.9,6.24,6.24,0,0,1,.25-2.6c.05-.41.06-.57.08-.82a5,5,0,0,1-2.59-.11,6.5,6.5,0,0,1,.22,2.61,1.82,1.82,0,0,1,.68,1.07c.05.43-.15.88.11,1.22a6.85,6.85,0,0,0,1.7,1.33,32.18,32.18,0,0,0,2.8,2c.33.07.53-.17.82-.12l.25.15a2.56,2.56,0,0,0,.49.4c-.7.44-1.59,1-2.24,1.3,0,0-1,.57-.55.58,0,0,.73,0,.8.13l-.78.33c1.09.4,2.22.75,3.36,1.06a8.09,8.09,0,0,1,2.57-1.83s1.31.05,1.74-.9c.14-.3.69.55,1.84-.09.11-.06.28.25.61.34.11,0-.47.11-.35.62,0,.07-.94,0-1.25.54a8.54,8.54,0,0,0-3.93,1.64l1,.23a3.23,3.23,0,0,1,2.16-.71A1.92,1.92,0,0,1,39,60.71c.7.1,1.4.18,2.1.25h0c.19-.09,1.16-.56.73-1.14,0,0-.23-.29-.64.09,0,0-.25.24-.36-.13a1.15,1.15,0,0,0-.14-.38s-.19-.28.19-.15a1.87,1.87,0,0,0,.68.07.69.69,0,0,0,0-1.37l-.08,0,.09.19c0,.13-.11.27-.24.24-.39-.11-.28-.89.26-.91a1.31,1.31,0,0,1,.88.51s.93,1.38,1.78,1.67c.05,0-.15.5.38.66.07,0,0,.44.55.39a2.89,2.89,0,0,1,.25.48l1.46,0,1.46,0a2.49,2.49,0,0,1,.26-.48c.55,0,.48-.37.54-.39.54-.16.33-.64.39-.66.85-.29,1.77-1.67,1.77-1.67a1.31,1.31,0,0,1,.88-.51c.55,0,.66.8.26.91-.13,0-.24-.11-.24-.24l.1-.19-.09,0a.69.69,0,0,0,0,1.37,1.87,1.87,0,0,0,.68-.07c.38-.13.19.15.19.15a1,1,0,0,0-.13.38c-.11.37-.37.13-.37.13-.4-.38-.63-.09-.63-.09-.44.58.53,1,.72,1.14h0c.71-.07,1.41-.15,2.1-.25a1.93,1.93,0,0,1,1.57-1.39A3.23,3.23,0,0,1,58.5,60l1-.23a8.62,8.62,0,0,0-3.93-1.64c-.31-.53-1.27-.47-1.25-.54.11-.51-.46-.59-.36-.62.33-.09.51-.4.61-.34,1.15.64,1.71-.21,1.84.09.43,1,1.74.9,1.74.9a8.09,8.09,0,0,1,2.57,1.83c1-.28,2.08-.61,3.09-1l0,0-.06-.17,0-.05h0L63.59,58h0a8.67,8.67,0,0,0-.77-1h0l0,0s.76-1.16,1.23-.37c0,.1,0,.37-.52.37a6.58,6.58,0,0,1,.69,1.47h0l.48-.17.14,0c-.3-.58-.74-.91-.62-1.1s.53.16.77-.19a5.55,5.55,0,0,0,.17-1,1.89,1.89,0,0,0,.75.18c.78,0,1.07-1.2.86-1.58.11-.07.57-.45.62-.35.24.55,1.51,1.15,1.4-.1.2.61.35,1.3,1.06,1.24.51-.12.18-1,.36-1,.15.25.37,1.25,1.12,1a.6.6,0,0,0,.42-.6c0-1-2.72-6-3-8.19l-.13,0c-.26-.14-.29-.57-.25-.88l0-.07c-.33-.06-.86-.35-.94-1.27s.36-1.24.44-1.24l0,.09c-.21.64-.36,1.42.11,1.86a.93.93,0,0,0,.48.18c.15-.28.34-.42.38-.41l0,.06a1.33,1.33,0,0,0,0,1.35.87.87,0,0,0,.51.22c.76-.27,1.16-1.74,1.33-2.2.51.11-.83,3.07.2,3.71.43,0,.67-.53.82-1,.34.87-1.09,2.71-.06,3.12.63.16.85-1.45.86-1.24.19,2.45-1.1,3.64-.28,4s.94-1.68.94-1.43c0,2.62-1.34,3.35-.78,3.81.65.26,1.11-1.32,1.1-.95-.06,2.34-1.23,3-.71,3.7s1.73-1.53,1.79-1.08-1.28,3.26-.51,3.45.88-.77.94-1A49.87,49.87,0,0,0,77,43.87a42.18,42.18,0,0,0-1.31-9.37c-.51-1.74-1.5-5.31-3.8-5.8A1.65,1.65,0,0,0,70,30.39c0,.77.56,1.15.32,1.93a6.45,6.45,0,0,0-.72,1.61c-.14.56.36.78.2,1.38-.7-.1-1.06.48-2.1.27a3.28,3.28,0,0,1-1.9.19l0,0c1,0,2-.37,2.17-.83a2.13,2.13,0,0,0-.44-2.11,5.31,5.31,0,0,1-2.94.51c-1.7-.1-2.12.22-2.36,1.25a.71.71,0,0,1-.08-.49c.06-.57.63-.91,1.31-1a1.24,1.24,0,0,0,.17-.7,2.49,2.49,0,0,0-.85,0,2.77,2.77,0,0,0-2.2,1.39,1.25,1.25,0,0,0-.06.42,1.93,1.93,0,0,0,.06.36l.09.26c.26.55.89.87,2.26.93l0,0c0,.05-.28.11-.62.07a2.72,2.72,0,0,1-1.83-.66l-.1.12a2.58,2.58,0,0,1-1.53.72,2,2,0,0,1-1.54-.7c-.82-1.09.24-3,.22-3.7,0-1.9-2.62-1.05-3.56-.55a9.31,9.31,0,0,0-2.78,2.47,8.19,8.19,0,0,0-1.08,1.65,6,6,0,0,0,2.05.6h.3a2.64,2.64,0,0,0,1.67-.52,1,1,0,0,1,.59-.22.92.92,0,0,1,.65.27c.13.11,1.76,1.41,2.29,1.77a.63.63,0,0,1,.26.41.72.72,0,0,1-.21.57,9.4,9.4,0,0,0-1.47,2.4,5.71,5.71,0,0,0-.21.58c-.2.7-.34,1.8.63,2.14,0,0,1.06.28,1-1.49,0,0,.17,1.13,1,1.1.36,0,.67-.37.61-1.13h0a9.57,9.57,0,0,1,.07-2.48l0-.1a2.41,2.41,0,0,1,.08.46,9.29,9.29,0,0,0,3.08,7.32A6.31,6.31,0,0,1,60.2,44.5a2.16,2.16,0,0,0-1,2.6A2.34,2.34,0,0,0,60,48.27l0,.07c0,.07-.19.21-.49-.1h0l-.14-.17a2.52,2.52,0,0,1-.27-.51c-.39-.33-.74-.7-1.1-1.06h0c-.27-.54-.12-2.18-1.72-2.18h-.15l-.27,0h-.06a6,6,0,0,1-.28-2.48,9,9,0,0,1,1.95-4l.12-.27-.09-.14h0c-.55-.37-2.15-1.64-2.33-1.79h0a.57.57,0,0,0-.39-.17.59.59,0,0,0-.35.13,3.05,3.05,0,0,1-1.91.61l-.31,0h0A6.41,6.41,0,0,1,50,35.53a8.28,8.28,0,0,0-3-.69,8.35,8.35,0,0,0-3,.69,6.27,6.27,0,0,1-2.3.69h0a1.73,1.73,0,0,1-.32,0,3.07,3.07,0,0,1-1.9-.6v0A.62.62,0,0,0,39,35.5a.57.57,0,0,0-.38.17h0c-.18.15-1.78,1.42-2.33,1.79h0l-.08.14.11.27a8.86,8.86,0,0,1,2,4,4.31,4.31,0,0,1,0,.9c-.13-.44-.26-.82-.36-1.1a1.79,1.79,0,0,0-.23-.6h0a2.61,2.61,0,0,0-.91-.81,7,7,0,0,1-.88-.4,3.17,3.17,0,0,1-1.15-1.15,3.61,3.61,0,0,0-.56-1.85c.15-.07.8.39.85,1.54a6.65,6.65,0,0,0,1.41-3.24c.58-.79,2.19-.48,2.8-.37a1.47,1.47,0,0,1,.55.17c.17.13.21.4.45.5a1.74,1.74,0,0,0,.85,0,2.06,2.06,0,0,1,.23.41h.24a6.5,6.5,0,0,0,2.17-.65h0l.13-.06a2.11,2.11,0,0,0-1.35-.63c-.6-.09-.93-.6-1.5-.72a2.5,2.5,0,0,0-.82-.05c-1.28.16-2.17-.32-3.36-.4s-1.17.69-1.57,1.32a4.28,4.28,0,0,1-.53.7c-.31.3-.67.31-1,.61l-.06,0a4.24,4.24,0,0,0-.52-1.45l0,0L33,34.31a4.05,4.05,0,0,0-2.68-2,1.38,1.38,0,0,1-.47-.25.23.23,0,0,1,0-.4c.39-.23,1.06-.15,1.5-.35,1.08-.51.7-1.42.28-1.5a9.13,9.13,0,0,1-1.73-.48c-.26-.16-.43-.62-.85-.77a1.86,1.86,0,0,0-.9-.05c-.27,0-.43.23-.63.2a1.61,1.61,0,0,1,1.23-.58c-.48-.13-.32-.9-.76-1.07a1.33,1.33,0,0,0-.77.21c0-.25-.17-1.07-.62-1.33s-.5.12-.48.33.56.41.65,1.25l-.28.2a1.65,1.65,0,0,0-.59-1.09c-.36-.21-.49.11-.47.33s.49.38.63,1.09a3.73,3.73,0,0,0-.36.32c-.74-.2-.9-.72-1.08-.75s-.54.06-.37.44a1.71,1.71,0,0,0,1.05.7L25.1,29c-.85-.16-1-.74-1.22-.78s-.54.07-.37.45,1.07.71,1.28.76a.84.84,0,0,0-.17.59c-.67-.08-1.83.28-1.61,1.05.22.16,1-.48,1.71-.12a2.55,2.55,0,0,0,1.4.89,1.89,1.89,0,0,1,.42.94,7.81,7.81,0,0,0,1,1.69,21.08,21.08,0,0,0,1.25,1.8,1.09,1.09,0,0,1,.07.53A15.85,15.85,0,0,1,26.37,39c-.6.56-6.27,4.88-7,6.75a4.08,4.08,0,0,0-.22,1.53A1.15,1.15,0,0,1,18,47.15c-.37-.44.39-.86.2-1.45a.49.49,0,0,0-.62-.22c-.42.15-.51,1-.3,1.5.06.14.28.33.12.44s-.35-.14-.35-.43a.47.47,0,0,0-.17.48c.11.42.61.43.77.54,0,.18-.29.26-.48.09-.32.46,0,.64.11.65.34.06.71-.25.92-.27.1.23-.07.3-.42.4.56.69,1.07-.49,1.7-.35.2,0,2,1.71,1.67,3l-.12.3c-.4.49-1.05.87-1.5,1.33-.93.59.89,4.32.74,6.23-.11.75.64.61,1.07,1.82a1.35,1.35,0,0,0-1.14.47l-.07.1h0a1,1,0,0,0-.12.46.94.94,0,0,0,1.87,0l0-.14a1.78,1.78,0,0,1,.75.17l.83.44a8.39,8.39,0,0,1-7.61,1s-2.14-.68-1.54-2.58a1.06,1.06,0,0,1,.4-.5,1,1,0,0,0,.43.63,1.06,1.06,0,0,0,.61.2,1.07,1.07,0,0,0,1.07-1.07,1,1,0,0,0-.3-.74l-.15-.13h0l0,0a1.84,1.84,0,0,0-1.54-.16,2.07,2.07,0,0,0-1.31,2.83s-1.39-.32-1.92.32a.77.77,0,0,0-.16.53h0a1.15,1.15,0,0,0,.14.45.81.81,0,0,0,.66.35.77.77,0,0,0,.63-.3h0c.06-.07.19-.15.48.09a6.16,6.16,0,0,0,4.76,1.87s.08,1.46,1.07,1.73l.15,0a.5.5,0,0,0,0-1h-.06a2.22,2.22,0,0,1-.06-.79,12,12,0,0,0,5.2-2.11,13.08,13.08,0,0,0,2.38.45s.13.33-.51.39c0,0-.81,0-.79.25,0,0-.06.29.59.28,0,0-.08.3.44.6,0,0,.33.17.16.39,0,0-.62.34-.44.73,0,0,.17.5,1,.38,0,0,.3,0,.06.24,0,0-.43.46.3.83a.69.69,0,0,0,.94-.28s.08-.23.43,0c0,0,1.85.84,2.8-.54,0,0,.06-.21.34.15,0,0,1,1.15,3.54,1.23a1,1,0,0,0,1.82-.28,5.16,5.16,0,0,0,2.67-.9,8.74,8.74,0,0,1,.92-.5,1.36,1.36,0,1,0,1.6-1.38M34,55.15l0,.08,0,0,0,0a.7.7,0,0,1-.27,0,2.41,2.41,0,0,1-.5,0,.26.26,0,0,0,.14.27h0l.13.07.22.11c0,.17-.29.27-.43.27-.3,0-.5-.33-.6-.53l-.08-.06-.07-.05a2.63,2.63,0,0,0-1-.21c.07-.69,1.95-.21,2-.2a2.3,2.3,0,0,1,.6.15v0m28.48,1.64h0l0,.1a3.4,3.4,0,0,1-1.12-.54,1,1,0,0,0-.72-.16h0c-.3.13-.44.44-.61.6l0-.18v0l0-.14V56.4l0-.12,0-.05.07-.14,0-.07.06-.05.09-.06,0,0a1.11,1.11,0,0,1,.58-.1h0a1.37,1.37,0,0,1,.8.31,2,2,0,0,0,1.08.31,1.48,1.48,0,0,0-.22.4m7.7-23.23c.14-.57.92-1.26.92-1.57s-.38-.74-.42-1.21a1.1,1.1,0,0,1,1.21-1.29,2,2,0,0,1,1.06.85c.12.13.28.25.38.37a13,13,0,0,1,1.9,4.35,43.47,43.47,0,0,1,.34,18.79A13.41,13.41,0,0,1,75.09,56c1.39-12.51.62-15.6.39-15.56s-.42,1.55-1.12,1.1,1.56-3.2.67-4.72c-.2-.24-.39.34-.75.24-.92-.3.51-2.68.24-2.94s-.9-.32-.92-1.2c0-.4.27-.73-.06-1.06s-.21.23-.48.11c-.43-.46,0-1-.24-1.32-.12-.09-.42.28-.66.1s.14-.61-.17-.76a1.07,1.07,0,0,0-.89,1.17c.07.35.48.58.45,1s-.44.73-.52.91c-.59,1.35.41,1.63.27,2.1-.06.23-.49.36-.76.25s-.45-1.36-.33-1.85m-1.8,2.67a4.25,4.25,0,0,0,.62-.12c.19-.07.34-.26.54-.26l-.15.23a3.38,3.38,0,0,1-1,.52,1.43,1.43,0,0,1-1.53-.47c.48-.15.9.18,1.56.1M57,31.52h-.12a2.76,2.76,0,0,0-2.25.13,5.43,5.43,0,0,0-1,.85A3.38,3.38,0,0,1,56,31c.94,0,1.05.49,1,.57m3.4,4.36a1.8,1.8,0,0,1-1,.95,2.09,2.09,0,0,1-1.82-.62c0-.11.74.36,1.48.31a2.39,2.39,0,0,0,1.32-.69l0,.05m1.4,14A2.59,2.59,0,0,0,64,49.65h.12c.08.07,0,.62-1,.82a3,3,0,0,1-2.53-1.3,4.6,4.6,0,0,0,1.08.76m-4-2.87,0,0v.32c0,.15,0,.33,0,.53V48h0a2.64,2.64,0,0,0,0,.38,1.59,1.59,0,0,1-.19,1l-.08.1-.08.07h0l-.08,0h0l-.08,0h-.15l-.09,0,0,0-.09,0-.06,0-.11-.08,0,0s-.2-.34.1-.38l.13.12h0l.08,0h.11l.05,0,0,0,0-.06v0l0-.12v-.3a5.18,5.18,0,0,1,.16-1.52l0-.05h0l.06,0h0l.08,0,0,0m-1.84-2.18h0a1.29,1.29,0,0,1,.47-.19l.26,0h0l.27,0a1.42,1.42,0,0,1,.32.68h0a2.18,2.18,0,0,0,.35.77c.17.17.1.52-.32.46h0a1.2,1.2,0,0,1-.75-1.48,1.17,1.17,0,0,0-.32,0h0l-.16.05h0l-.09,0-.07,0c-.11.09-.15.26-.3.26a.84.84,0,0,1,.39-.65m-17.6,1.58a6.43,6.43,0,0,0,1.08-3.89,7.17,7.17,0,0,0-1.65-4.35.57.57,0,0,1-.17-.48.46.46,0,0,1,.25-.36c.33-.23,1-.68,1.36-.87l.14-.09.11,0c.09,0,.16.06.3.17a2.74,2.74,0,0,0,1.8.65,3.2,3.2,0,0,0,.52,0,6.06,6.06,0,0,0,1.33-.49c.25-.14.57-.28.71-.34l.07,0a7.56,7.56,0,0,1,2.79-.6,7.45,7.45,0,0,1,2.78.6l.08,0c.14.06.46.21.72.35a5.7,5.7,0,0,0,1.32.49,3.23,3.23,0,0,0,.53,0,2.7,2.7,0,0,0,1.79-.65c.14-.11.22-.17.31-.17l.13,0,.15.09,1.36.88a.43.43,0,0,1,.21.34.55.55,0,0,1-.17.47,7.28,7.28,0,0,0-1.65,4.33,6.52,6.52,0,0,0,1.09,3.92,4.47,4.47,0,0,1-4.39,6.73c-.28,0-2.71.05-3.53,1.6l-.05.07c-.1.17-.4.66-.54.93l-.14.08-.14-.08c-.13-.27-.44-.76-.53-.93l0-.07c-.83-1.55-3.26-1.6-3.53-1.6a4.84,4.84,0,0,1-4.31-2,4.75,4.75,0,0,1-.08-4.74m-.77-2.68a1.7,1.7,0,0,1,.34,1V46l0,.2,0,.13,0,.14,0,.1,0,.13-.05.19,0,.11,0,.11,0,.1-.08.17,0,.08-.07.11,0,.06-.11.15,0,0-.1.1,0,0-.15.09h0l-.16.05h0l-.19,0,0-.14c0-.19.21-.36.29-.58s.07-.35.19-.5.37.05.43-.13a.76.76,0,0,1,.06-1.13c.55-.56,0-1.75.1-1.9m-.17-1.85c-.24.06-.29-1-1.59-.76a1.88,1.88,0,0,1-1.66-.07c1.84-1,3.39,0,3.25.83M26.57,31.33c-.29-.66.76-1.57,1-1.65.6-.22,1.05.15,1.7.25.38.06.79,0,1.1,0,.71.06.52.58.4.65-.59.17-.92-.28-1.42-.35s-.76.16-1.12.13-.56-.23-.86,0c0,0-.44.33-.35.72a.29.29,0,0,1-.47.23m.68-.14c.79.3.86-.71,1.05-.48.27.47-.48,1.17-1.05.48m1.49,2.24A8.6,8.6,0,0,1,32,34l.1.06a3,3,0,0,1,1.17,1.64,9.4,9.4,0,0,0-2.32-1.13c-.85-.3-1.83-.43-2.2-1.12M22.51,60.78h0a3.24,3.24,0,0,1-.43-.26c-.14.21.13.43.26.62l-.18.11h0l-.29,0h0c-.27-.13-.32-.52-.32-.73a.92.92,0,0,0-.45-.72c.52-.34,1.33.51,1.4.58h0c.11.09.26.17.38.28l.09.1c-.06.15-.21.14-.4.06"/><path class="c" d="M106.35,30.64H104L107.37,18h4.07l3.31,12.6H112l-.65-2.84H107Zm2.5-10.45-1.38,5.63h3.43l-1.29-5.63Z"/><path class="c" d="M124.38,21.49l0,1.81a6.61,6.61,0,0,1-1.72-.31,2.5,2.5,0,0,1,.92,1.43c0,2.24-2.22,3.14-3.77,3.14a5.6,5.6,0,0,1-1.18-.17c-.28.09-.45.26-.45.51,0,1,5.81-.17,5.81,3.26,0,2.15-2.06,3.32-4.35,3.32-1.92,0-3.86-.84-3.86-2.52,0-1.17.93-1.79,2.42-2-1.14-.13-2.28-.49-2.28-1.55,0-.77.71-1.33,1.74-1.4A2.82,2.82,0,0,1,116,24.42c0-2.42,2.29-3.11,3.77-3.11,1,0,3,.16,4.63.18m-5,8.63a1.33,1.33,0,0,0-1.4,1.34c0,.8.73,1.38,1.72,1.38s1.83-.56,1.83-1.51c0-.8-.71-1.1-2.15-1.21m2-5.71c0-1.09-.91-1.37-1.62-1.37s-1.64.28-1.64,1.37.87,1.43,1.64,1.43,1.62-.28,1.62-1.43"/><path class="c" d="M128.05,26.72A2.08,2.08,0,0,0,130.41,29a6.11,6.11,0,0,0,2.68-.77l.47,1.72a7.54,7.54,0,0,1-3.45.89c-2.82,0-4.5-1.75-4.5-4.77,0-2.82,1.36-4.74,4.29-4.74,2.76,0,3.84,2.05,3.84,4.35v1.06Zm1.72-3.62c-1.21,0-1.72,1.1-1.72,2.18h3.34c0-1.17-.35-2.18-1.62-2.18"/><path class="c" d="M141.27,30.64V25.21c0-1.38-.53-2-1.65-2a3,3,0,0,0-1.6.56v6.91h-2.45V21.49h1.68l.38,1.05a3.77,3.77,0,0,1,2.89-1.23c2.31,0,3.23,1.36,3.23,3.67v5.66Z"/><path class="c" d="M153,30a7.06,7.06,0,0,1-3.13.8c-2.72,0-4.37-1.54-4.37-4.75,0-3,1.65-4.76,4.35-4.76a6.26,6.26,0,0,1,3.14.74l-.64,1.67a4.46,4.46,0,0,0-2.3-.57c-1.26,0-2.07.86-2.07,2.92s.77,2.91,2.09,2.91a5.42,5.42,0,0,0,2.49-.69Z"/><path class="c" d="M155.39,30.64V23.25L154.33,23V21.49h3.49v9.15Zm-.07-12.88h2.46V20h-2.46Z"/><path class="c" d="M165.68,30.64l-.34-1.08a3.29,3.29,0,0,1-2.67,1.26,2.83,2.83,0,0,1-3.06-2.93c0-1.69,1.25-2.7,3.45-2.7H165v-.47c0-1.17-.68-1.55-1.61-1.55a6.52,6.52,0,0,0-2.74.62L160,22.05a9.31,9.31,0,0,1,3.6-.74c2.6,0,3.72,1.19,3.72,3.52v5.81Zm-.69-4h-1.52c-1,0-1.47.49-1.47,1.18a1.21,1.21,0,0,0,1.36,1.34,2.77,2.77,0,0,0,1.63-.61Z"/><path class="c" d="M179.49,22.2a5.59,5.59,0,0,1-.23-1.68V17.76h2.43V30.64h-2l-.28-1A3,3,0,0,1,177,30.82c-2.08,0-3.74-1.49-3.74-4.75,0-3,1.72-4.76,3.94-4.76a3,3,0,0,1,2.28.89m-.23,1.38a3.29,3.29,0,0,0-1.66-.44c-1.15,0-1.88.78-1.88,2.91s.69,3,1.84,3a2.41,2.41,0,0,0,1.7-.78Z"/><path class="c" d="M186,26.72A2.08,2.08,0,0,0,188.33,29a6.11,6.11,0,0,0,2.69-.77l.47,1.72a7.55,7.55,0,0,1-3.46.89c-2.81,0-4.49-1.75-4.49-4.77,0-2.82,1.36-4.74,4.29-4.74,2.76,0,3.84,2.05,3.84,4.35v1.06Zm1.72-3.62c-1.21,0-1.72,1.1-1.72,2.18h3.34c0-1.17-.35-2.18-1.62-2.18"/><path class="c" d="M110,49.57c-3.55,0-5.45-2.35-5.45-6.55,0-3.91,1.88-6.42,5.45-6.42a7.92,7.92,0,0,1,4.29,1.07l-.93,2a5.24,5.24,0,0,0-3.1-.88c-2.09,0-3.14,1.47-3.14,4.24s1,4.4,3.1,4.4a5.81,5.81,0,0,0,3.32-1.16l.79,2A7.44,7.44,0,0,1,110,49.57"/><path class="c" d="M121.61,49.39l-.33-1.09a3.27,3.27,0,0,1-2.67,1.27,2.83,2.83,0,0,1-3.06-2.93c0-1.69,1.25-2.7,3.45-2.7h1.92v-.47c0-1.17-.67-1.55-1.6-1.55a6.52,6.52,0,0,0-2.74.62L116,40.8a9.23,9.23,0,0,1,3.6-.74c2.6,0,3.72,1.19,3.72,3.52v5.81Zm-.69-4h-1.51c-1,0-1.47.49-1.47,1.18a1.21,1.21,0,0,0,1.36,1.34,2.72,2.72,0,0,0,1.62-.61Z"/><path class="c" d="M125.42,47V36.51h2.41V46.83c0,.77.47.88,1.47.88v1.71a7.62,7.62,0,0,1-1.34.15c-1.87,0-2.54-1-2.54-2.61"/><path class="c" d="M131.64,49.39V42l-1.07-.23V40.24h3.49v9.15Zm-.08-12.88H134v2.22h-2.47Z"/><path class="c" d="M142.2,41a5.61,5.61,0,0,1-.22-1.68V36.51h2.42V49.39h-2l-.28-1a3,3,0,0,1-2.42,1.19c-2.07,0-3.73-1.49-3.73-4.75,0-3,1.71-4.76,3.93-4.76a3,3,0,0,1,2.28.89M142,42.33a3.36,3.36,0,0,0-1.67-.44c-1.15,0-1.88.78-1.88,2.91s.69,3,1.85,3A2.45,2.45,0,0,0,142,47Z"/><path class="c" d="M152.24,49.39l-.34-1.09a3.25,3.25,0,0,1-2.67,1.27,2.83,2.83,0,0,1-3-2.93c0-1.69,1.24-2.7,3.45-2.7h1.92v-.47c0-1.17-.67-1.55-1.61-1.55a6.55,6.55,0,0,0-2.74.62l-.62-1.74a9.33,9.33,0,0,1,3.61-.74c2.59,0,3.71,1.19,3.71,3.52v5.81Zm-.69-4H150c-1,0-1.48.49-1.48,1.18a1.22,1.22,0,0,0,1.37,1.34,2.77,2.77,0,0,0,1.62-.61Z"/><path class="c" d="M162,41a5.29,5.29,0,0,1-.23-1.68V36.51h2.43V49.39h-2l-.28-1a3,3,0,0,1-2.43,1.19c-2.07,0-3.73-1.49-3.73-4.75,0-3,1.72-4.76,3.94-4.76A3,3,0,0,1,162,41m-.23,1.38a3.29,3.29,0,0,0-1.66-.44c-1.16,0-1.88.78-1.88,2.91s.69,3,1.84,3a2.43,2.43,0,0,0,1.7-.78Z"/><path class="c" d="M176.37,41a5.61,5.61,0,0,1-.22-1.68V36.51h2.42V49.39h-2l-.28-1a3,3,0,0,1-2.42,1.19c-2.07,0-3.73-1.49-3.73-4.75,0-3,1.71-4.76,3.93-4.76a3,3,0,0,1,2.28.89m-.22,1.38a3.36,3.36,0,0,0-1.67-.44c-1.15,0-1.88.78-1.88,2.91s.69,3,1.85,3a2.45,2.45,0,0,0,1.7-.78Z"/><path class="c" d="M182.87,45.47a2.08,2.08,0,0,0,2.35,2.26A6.11,6.11,0,0,0,187.9,47l.47,1.72a7.47,7.47,0,0,1-3.45.89c-2.82,0-4.5-1.75-4.5-4.77,0-2.82,1.36-4.74,4.29-4.74,2.76,0,3.85,2,3.85,4.34v1.07Zm1.71-3.62c-1.21,0-1.71,1.1-1.71,2.18h3.34c0-1.17-.36-2.18-1.63-2.18"/><path class="c" d="M194.53,47V36.51h2.41V46.83c0,.77.46.88,1.47.88v1.71a7.62,7.62,0,0,1-1.34.15c-1.87,0-2.54-1-2.54-2.61"/><path class="c" d="M205.63,49.39l-.33-1.09a3.27,3.27,0,0,1-2.67,1.27,2.83,2.83,0,0,1-3.06-2.93c0-1.69,1.25-2.7,3.45-2.7h1.92v-.47c0-1.17-.67-1.55-1.6-1.55a6.48,6.48,0,0,0-2.74.62L200,40.8a9.23,9.23,0,0,1,3.6-.74c2.59,0,3.71,1.19,3.71,3.52v5.81Zm-.69-4h-1.51c-1,0-1.47.49-1.47,1.18a1.21,1.21,0,0,0,1.36,1.34,2.75,2.75,0,0,0,1.62-.61Z"/><polygon class="c" points="104.95 68.14 104.95 55.54 112.69 55.54 112.69 57.61 107.39 57.61 107.39 60.71 111.44 60.71 111.26 62.88 107.39 62.88 107.39 66.1 112.69 66.1 112.69 68.14 104.95 68.14"/><path class="c" d="M119.73,59.7A5.59,5.59,0,0,1,119.5,58V55.26h2.43V68.14h-2l-.28-1a3,3,0,0,1-2.42,1.19c-2.07,0-3.74-1.49-3.74-4.75,0-3,1.72-4.76,3.94-4.76a3,3,0,0,1,2.28.89m-.23,1.38a3.29,3.29,0,0,0-1.66-.45c-1.15,0-1.88.79-1.88,2.92s.69,3,1.85,3a2.41,2.41,0,0,0,1.69-.78Z"/><path class="c" d="M130.52,68.14,130.14,67a3.59,3.59,0,0,1-2.85,1.3c-2.28,0-3.32-1.27-3.32-3.79V59h2.42v5.56c0,1.4.51,1.91,1.61,1.91a3,3,0,0,0,1.64-.54V59h2.48v9.15Z"/><path class="c" d="M141.43,67.52a7.06,7.06,0,0,1-3.13.8c-2.73,0-4.37-1.55-4.37-4.76,0-3,1.64-4.75,4.35-4.75a6.26,6.26,0,0,1,3.14.74l-.64,1.66a4.55,4.55,0,0,0-2.29-.56c-1.27,0-2.08.86-2.08,2.91s.77,2.92,2.09,2.92a5.42,5.42,0,0,0,2.49-.69Z"/><path class="c" d="M148.69,68.14l-.33-1.09a3.27,3.27,0,0,1-2.67,1.27,2.83,2.83,0,0,1-3.06-2.93c0-1.69,1.25-2.7,3.45-2.7H148v-.47c0-1.17-.67-1.55-1.6-1.55a6.52,6.52,0,0,0-2.74.62L143,59.55a9.23,9.23,0,0,1,3.6-.74c2.59,0,3.72,1.19,3.72,3.52v5.81Zm-.69-4h-1.51c-1,0-1.47.49-1.47,1.18a1.21,1.21,0,0,0,1.36,1.34,2.72,2.72,0,0,0,1.62-.61Z"/><path class="c" d="M159.76,67.52a7.06,7.06,0,0,1-3.13.8c-2.73,0-4.37-1.55-4.37-4.76,0-3,1.64-4.75,4.35-4.75a6.22,6.22,0,0,1,3.13.74l-.63,1.66a4.61,4.61,0,0,0-2.3-.56c-1.27,0-2.07.86-2.07,2.91s.77,2.92,2.09,2.92a5.38,5.38,0,0,0,2.48-.69Z"/><path class="c" d="M162.13,68.14V60.75l-1.06-.23V59h3.49v9.15Zm-.07-12.88h2.46v2.22h-2.46Z"/><path class="c" d="M175,63.55c0,3.11-1.57,4.77-4.29,4.77s-4.29-1.64-4.29-4.77c0-2.69,1.49-4.74,4.29-4.74s4.29,2,4.29,4.74m-6.55-6-.24-1.4,4.72-1.32.32,1.79Zm4.05,6c0-2.21-.65-3-1.79-3s-1.77.78-1.77,3,.57,3,1.77,3,1.79-.8,1.79-3"/><path class="c" d="M182.49,68.14V62.71c0-1.39-.52-2-1.64-2a2.93,2.93,0,0,0-1.6.56v6.91H176.8V59h1.68l.37,1a3.79,3.79,0,0,1,2.89-1.23c2.32,0,3.23,1.36,3.23,3.67v5.66Z"/><path class="c" d="M112.15,216.41a8.52,8.52,0,0,1-3.66.9c-3,0-4.56-2.11-4.56-5.32s1.54-5.13,4.69-5.13a5.83,5.83,0,0,1,3.33.89l-.82,1.5a4.51,4.51,0,0,0-2.48-.64c-1.83,0-2.65,1.33-2.65,3.35,0,2.39.88,3.67,2.62,3.67a4,4,0,0,0,1.71-.32v-1.88H109l-.12-1.46h3.32Z"/><path class="c" d="M120.35,213.46c0,2.51-1.26,3.85-3.45,3.85s-3.45-1.32-3.45-3.85c0-2.16,1.2-3.82,3.45-3.82S120.35,211.3,120.35,213.46Zm-2,0c0-1.77-.52-2.39-1.44-2.39s-1.42.63-1.42,2.39.46,2.41,1.42,2.41S118.34,215.22,118.34,213.46Z"/><path class="c" d="M123.64,210.55a2.59,2.59,0,0,1,2-.91c1.72,0,3,1.24,3,3.82s-1.5,3.85-3.21,3.85a2.41,2.41,0,0,1-2.13-1l-.36.89h-1V206.79h2v2.57Zm.13,4.57a1.79,1.79,0,0,0,1.34.75c.85,0,1.48-.63,1.48-2.41s-.55-2.37-1.45-2.37a2.06,2.06,0,0,0-1.37.58Z"/><path class="c" d="M130.64,217.16v-5.95l-.85-.18v-1.24h2.8v7.37Zm-.06-10.37h2v1.79h-2Z"/><path class="c" d="M136.06,214a1.67,1.67,0,0,0,1.89,1.82,4.82,4.82,0,0,0,2.16-.62l.37,1.39a6,6,0,0,1-2.77.72c-2.27,0-3.62-1.41-3.62-3.85,0-2.27,1.1-3.82,3.45-3.82s3.09,1.66,3.09,3.51V214Zm1.38-2.91c-1,0-1.38.88-1.38,1.76h2.68C138.74,211.9,138.46,211.09,137.44,211.09Z"/><path class="c" d="M146.29,211.43a3.54,3.54,0,0,0-.92-.12,2.13,2.13,0,0,0-1.32.5v5.35h-2v-7.37h1.37l.21,1h0a2,2,0,0,1,1.76-1.13,3.54,3.54,0,0,1,.85.1Z"/><path class="c" d="M152,217.16v-4.37c0-1.12-.42-1.64-1.32-1.64a2.35,2.35,0,0,0-1.29.45v5.56h-2v-7.37h1.35l.3.85a3,3,0,0,1,2.32-1c1.86,0,2.6,1.1,2.6,3v4.56Z"/><path class="c" d="M162.23,213.46c0,2.51-1.26,3.85-3.45,3.85s-3.45-1.32-3.45-3.85c0-2.16,1.2-3.82,3.45-3.82S162.23,211.3,162.23,213.46Zm-2,0c0-1.77-.52-2.39-1.44-2.39s-1.42.63-1.42,2.39.46,2.41,1.42,2.41S160.22,215.22,160.22,213.46Z"/><path class="c" d="M171.76,210.37a4.62,4.62,0,0,1-.18-1.36v-2.22h1.95v10.37h-1.59l-.23-.81a2.37,2.37,0,0,1-2,1c-1.66,0-3-1.2-3-3.83,0-2.44,1.38-3.84,3.17-3.84A2.37,2.37,0,0,1,171.76,210.37Zm-.18,1.11a2.64,2.64,0,0,0-1.34-.36c-.93,0-1.51.63-1.51,2.34s.55,2.42,1.48,2.42a2,2,0,0,0,1.37-.63Z"/><path class="c" d="M177,214a1.67,1.67,0,0,0,1.89,1.82,4.82,4.82,0,0,0,2.16-.62l.37,1.39a6,6,0,0,1-2.77.72c-2.27,0-3.62-1.41-3.62-3.85,0-2.27,1.1-3.82,3.45-3.82s3.09,1.66,3.09,3.51V214Zm1.38-2.91c-1,0-1.38.88-1.38,1.76h2.68C179.66,211.9,179.38,211.09,178.36,211.09Z"/><path class="c" d="M190.49,217.31c-2.85,0-4.38-1.89-4.38-5.28,0-3.15,1.52-5.17,4.38-5.17a6.29,6.29,0,0,1,3.45.86l-.75,1.59a4.26,4.26,0,0,0-2.49-.7c-1.68,0-2.52,1.18-2.52,3.41s.84,3.55,2.49,3.55a4.7,4.7,0,0,0,2.67-.94l.63,1.6A6,6,0,0,1,190.49,217.31Z"/><path class="c" d="M195.29,217.16V206.79h2v2.72a3.15,3.15,0,0,1-.2,1.14,2.62,2.62,0,0,1,2.12-1c2.1,0,2.68,1.1,2.68,3v4.56h-2v-4.39c0-1.05-.42-1.62-1.31-1.62a2.26,2.26,0,0,0-1.3.45v5.56Z"/><path class="c" d="M204.05,217.16v-5.95l-.85-.18v-1.24H206v7.37ZM204,206.79h2v1.79h-2Z"/><path class="c" d="M207.8,215.2v-8.41h1.94v8.31c0,.62.37.71,1.18.71v1.38a6.15,6.15,0,0,1-1.08.12C208.34,217.31,207.8,216.51,207.8,215.2Z"/><path class="c" d="M213.88,214a1.67,1.67,0,0,0,1.89,1.82,4.82,4.82,0,0,0,2.16-.62l.37,1.39a6,6,0,0,1-2.77.72c-2.27,0-3.62-1.41-3.62-3.85,0-2.27,1.1-3.82,3.45-3.82s3.09,1.66,3.09,3.51V214Zm1.38-2.91c-1,0-1.38.88-1.38,1.76h2.68C216.56,211.9,216.28,211.09,215.26,211.09Z"/></svg>